<?xml version="1.0" encoding="utf-8"?>
<!-- Generator: Adobe Illustrator 26.5.0, SVG Export Plug-In . SVG Version: 6.00 Build 0)  -->
<svg version="1.1" id="Layer_1" xmlns="http://www.w3.org/2000/svg" xmlns:xlink="http://www.w3.org/1999/xlink" x="0px" y="0px"
	 viewBox="0 0 656.2 1440" style="enable-background:new 0 0 656.2 1440;" xml:space="preserve">
<style type="text/css">
	.st0{fill:#8E1E1E;}
	.st1{fill:#FFFFFF;}
</style>
<g>
	<g>
		<g>
			<path class="st0" d="M208.2,439.4l-60.3,36.2c-42-40.1-70.7-94.1-78.6-154.7c-0.6-4.5,3-8.4,7.5-8.4h52.5c3.7,0,6.7,2.7,7.4,6.3
				C144.8,367.5,171,410.1,208.2,439.4z"/>
			<path class="st0" d="M75.1,282H127c4,0,7.2-3.1,7.4-7.1c5.7-94.4,78.8-170.5,171.7-180.9c3.8-0.4,6.7-3.6,6.7-7.4V34.3
				c0-4.3-3.7-7.8-8-7.5C175.7,38.2,73.7,143.6,67.4,274.1C67.2,278.4,70.8,282,75.1,282z"/>
			<path d="M556.1,255H608c4.3,0,7.8-3.6,7.6-7.9C609.4,116.7,507.3,11.4,378.2,0c-4.3-0.4-8,3.1-8,7.5v52.1c0,3.8,2.9,7,6.7,7.4
				c93,10.4,166,86.6,171.7,180.9C548.9,251.9,552.1,255,556.1,255z"/>
			<path class="st0" d="M586.8,320.9c-7.9,60.8-36.8,115-79.1,155.2l-60.4-36.3c37.5-29.3,64-72,72.1-121c0.6-3.6,3.7-6.3,7.4-6.3
				h52.5C583.8,312.4,587.4,316.4,586.8,320.9z"/>
			<path d="M207.3,271.1c0,7-5.7,12.7-12.7,12.7s-12.8-5.7-12.8-12.7s5.7-12.8,12.8-12.8S207.3,264,207.3,271.1z"/>
			<path d="M264.1,227.1c0,7-5.7,12.7-12.8,12.7c-7,0-12.7-5.7-12.7-12.7c0-7,5.7-12.8,12.7-12.8
				C258.3,214.3,264.1,220.1,264.1,227.1z"/>
			<path d="M380.8,332.5c0,7-5.7,12.8-12.7,12.8s-12.8-5.7-12.8-12.8c0-7,5.7-12.8,12.8-12.8S380.8,325.5,380.8,332.5z"/>
			<path d="M450.2,229c0,2.3,0.3,4.6,0.9,6.8l-73.8,73.8c-2.9-1.2-6.1-1.8-9.4-1.8c-3,0-5.9,0.5-8.5,1.5c0,0,0,0,0,0l-83.5-83.5
				c-0.7-13.1-11.5-23.5-24.8-23.5c-0.4,0-0.8,0-1.2,0H250c-1-0.1-1.9,0-2.9,0.3c0,0,0,0-0.1,0c-9.8,1.7-17.6,9.1-19.9,18.6l-26,26
				c-2.1-0.6-4.4-0.9-6.7-0.9c-4.2,0-8.2,1.1-11.7,2.9l-9.4-9.4c-0.5-0.5-1.1-1-1.7-1.3C190.8,176.4,246,130,312.9,123.9
				c5-0.5,10.1-0.7,15.1-0.7c5.2,0,10.2,0.3,15.2,0.7c54.1,5,100.5,36.3,126.4,81C458.6,207.3,450.2,217.2,450.2,229z"/>
			<path d="M491.7,286.8c0,8.7-0.7,17.3-2,25.7c-7.2,45.9-33.6,85.5-70.7,110.3l-91.6-55l-90.9,54.6c-36.7-24.9-62.8-64.2-70-109.9
				c-1.3-8.3-2-17-2-25.7c0-1.6,0-3.2,0.1-4.8c0.1-3.9,0.4-7.8,0.8-11.7l4.7,4.7c1.8,11.9,12.1,20.9,24.5,20.9
				c13.7,0,24.8-11.1,24.8-24.8c0-1.1-0.1-2.1-0.2-3.2l19.5-19.5c3.7,2.2,8.1,3.5,12.7,3.5c3.6,0,7.1-0.8,10.2-2.2l81.8,81.8
				c0,0.4,0,0.7,0,1.1c0,13.7,11.1,24.8,24.8,24.8c13.6,0,24.7-11,24.8-24.7l79-79c1,0.1,2.1,0.2,3.2,0.2c4.6,0,8.9-1.2,12.5-3.4
				c2.3,10.2,3.7,20.7,4,31.5C491.7,283.6,491.7,285.1,491.7,286.8z"/>
			<g>
				<path class="st1" d="M207.3,271.1c0,7-5.7,12.7-12.7,12.7s-12.8-5.7-12.8-12.7s5.7-12.8,12.8-12.8S207.3,264,207.3,271.1z"/>
				<path class="st1" d="M264.1,227.1c0,7-5.7,12.7-12.8,12.7c-7,0-12.7-5.7-12.7-12.7c0-7,5.7-12.8,12.7-12.8
					C258.3,214.3,264.1,220.1,264.1,227.1z"/>
				<path class="st1" d="M380.8,332.5c0,7-5.7,12.8-12.7,12.8s-12.8-5.7-12.8-12.8c0-7,5.7-12.8,12.8-12.8S380.8,325.5,380.8,332.5z
					"/>
			</g>
			<path class="st1" d="M264.1,227.1c0,7-5.7,12.7-12.8,12.7c-7,0-12.7-5.7-12.7-12.7c0-7,5.7-12.8,12.7-12.8
				C258.3,214.3,264.1,220.1,264.1,227.1z"/>
			<path class="st1" d="M207.3,271.1c0,7-5.7,12.7-12.7,12.7s-12.8-5.7-12.8-12.7s5.7-12.8,12.8-12.8S207.3,264,207.3,271.1z"/>
			<path class="st1" d="M380.8,332.5c0,7-5.7,12.8-12.7,12.8s-12.8-5.7-12.8-12.8c0-7,5.7-12.8,12.8-12.8S380.8,325.5,380.8,332.5z"
				/>
			<path d="M207.3,271.1c0,7-5.7,12.7-12.7,12.7s-12.8-5.7-12.8-12.7s5.7-12.8,12.8-12.8S207.3,264,207.3,271.1z"/>
			<path d="M264.1,227.1c0,7-5.7,12.7-12.8,12.7c-7,0-12.7-5.7-12.7-12.7c0-7,5.7-12.8,12.7-12.8
				C258.3,214.3,264.1,220.1,264.1,227.1z"/>
			<path d="M380.8,332.5c0,7-5.7,12.8-12.7,12.8s-12.8-5.7-12.8-12.8c0-7,5.7-12.8,12.8-12.8S380.8,325.5,380.8,332.5z"/>
			<path d="M487.8,229c0,3.4-1.3,6.6-3.6,8.8c-2.3,2.4-5.6,3.9-9.2,3.9c-7,0-12.8-5.7-12.8-12.8c0-2,0.5-3.9,1.3-5.6
				c1.3-2.5,3.3-4.6,5.8-5.8c1.7-0.8,3.6-1.3,5.6-1.3c0.2,0,0.5,0,0.7,0C482.4,216.7,487.8,222.2,487.8,229z"/>
		</g>
		<g>
			<g>
				<path class="st0" d="M650.9,632.8c-7,11.7-19.5,18.2-32.2,18.2c-6.6,0-13.2-1.7-19.3-5.4l-39.7-23.9l-146.8-88.2h0l-69.6-41.8
					l-15.9-9.5l-14.5,8.7l-70.5,42.4L92.5,623.4l-35.7,21.4c-6.1,3.6-12.7,5.4-19.3,5.4c-12.7,0-25.2-6.5-32.2-18.2
					c-10.7-17.8-4.9-40.8,12.8-51.5l43.3-26l104.8-63l62.9-37.8l30.5-18.3l67.8-40.7l0,0v0l68.3,41.1l30.5,18.4l63,37.9l103.4,62.2
					l45.3,27.2C655.8,592,661.6,615,650.9,632.8z"/>
			</g>
			<g>
				<path class="st0" d="M594,724.3c-7,11.7-19.5,18.2-32.2,18.2c-6.6,0-13.2-1.7-19.3-5.4l-30.3-18.2v0L327.6,608l-118.9,71.5
					l-95,57.1c-6.1,3.6-12.7,5.4-19.3,5.4c-12.7,0-25.1-6.5-32.2-18.2c-10.7-17.8-4.9-40.8,12.8-51.5l31-18.6l181.5-109.1l25.3-15.2
					l14.8-8.9l0,0v0l15.6,9.4l24.5,14.7l177.5,106.6l35.9,21.6C598.9,683.5,604.7,706.5,594,724.3z"/>
			</g>
			<g>
				<path class="st0" d="M117.3,760.5l60.2-36.2v427.2c0,16.6-13.5,30.1-30.1,30.1h0c-16.6,0-30.1-13.5-30.1-30.1V760.5z"/>
				<path class="st0" d="M298,652v439.3c0,16.6-13.5,30.1-30.1,30.1c-8.3,0-15.9-3.4-21.3-8.8c-5.4-5.4-8.8-13-8.8-21.3V688.2
					l5.8-3.5L298,652z"/>
				<path class="st0" d="M418.5,688.6v342.5c0,16.6-13.5,30.1-30.1,30.1c-8.3,0-15.9-3.4-21.3-8.8c-5.5-5.5-8.8-13-8.8-21.3V652.4
					L418.5,688.6z"/>
			</g>
		</g>
	</g>
	<g>
		<g>
			<path d="M97.8,1373.1v-5.8l13.8-3.6c1.2-0.3,2.2-1,3-1.9c0.8-0.9,1.2-2.1,1.2-3.6v-110c0-1.5-0.4-2.7-1.2-3.6
				c-0.8-1-1.8-1.6-3-1.8l-13.8-3.6v-5.7h52.8c13.6,0,24.1,1.5,31.3,4.4c7.2,3,12.2,6.8,15,11.5c2.7,4.7,4.1,9.7,4.1,15
				c0,8.8-2.7,16.2-8.1,22.1c-5.4,5.9-12.7,10.1-21.8,12.5v0.2c7.4,0.3,14,1.9,19.9,4.7s10.6,6.6,14,11.5c3.5,4.9,5.2,10.7,5.2,17.4
				c0,8-1.6,14.6-4.8,19.9c-3.2,5.3-7.6,9.4-13,12.3c-5.5,3-11.5,5.1-18.3,6.3c-6.7,1.2-13.5,1.8-20.4,1.8H97.8z M135,1242.5v54.5
				h9.6c13.5,0,22.9-2.2,28.2-6.7c5.3-4.5,8-10.6,8-18.4c0-10.4-2.7-17.9-8.1-22.4c-5.4-4.6-13.6-6.9-24.7-6.9H135z M135,1305.6
				v58.3h21.6c10.9,0,19-2.1,24.4-6.4c5.4-4.3,8-11.3,8-21c0-11.4-2.9-19.4-8.8-23.9c-5.9-4.6-15.5-6.9-28.9-6.9H135z"/>
			<path d="M214.1,1373.1v-5.8l9.2-3.3c2.6-0.9,4.5-2.8,5.6-5.7l40-103.7l12-23.2h6.8l49.5,127.1c0.5,1.2,1.2,2.3,2.1,3.4
				c1,1.1,2,1.8,3.2,2.2l9.4,3.2v5.8h-50.3v-5.8l17.2-4.3l-35.9-92.3l-4.6-13.5h-0.7l-39.3,105.3l17,4.7v5.8H214.1z M251.5,1322.4
				l3.8-10.1h45.5l3.8,10.1H251.5z"/>
			<path d="M359.5,1367.4l-1.7-36.5h7.9l6.4,20.2c0.3,0.9,1,1.8,1.9,2.8c1,1,1.8,1.8,2.5,2.3c2.9,1.8,6.2,3.5,9.7,5
				c3.5,1.5,7,2.7,10.5,3.6c3.5,0.9,6.7,1.3,9.6,1.3c9.2,0,16.5-2.3,21.8-6.9s8.1-11.1,8.1-19.5c0-6.1-1.7-11-5.1-14.9
				c-3.4-3.9-8-7-13.7-9.5c-5.3-2.2-10.6-3.9-15.8-5.2s-10.3-3-15.5-5c-7.6-3.1-13.6-7.6-17.9-13.4c-4.3-5.8-6.4-12.8-6.4-20.9
				c0-7.6,2-14.5,6-20.6s9.4-10.9,16.3-14.5c6.9-3.6,14.6-5.4,23.1-5.4c4.9,0,9.7,0.3,14.3,1c4.6,0.7,9,1.5,13.3,2.5
				c4.3,1,8.3,2.1,12.2,3.2v34.1h-7.8l-5.8-19c-0.3-0.9-0.9-1.8-1.8-2.7c-0.9-0.9-1.8-1.6-2.5-2.1c-1.9-1.4-4.1-2.6-6.8-3.6
				c-2.7-1-5.5-1.8-8.4-2.3c-2.9-0.6-5.6-0.8-8-0.8c-8.4,0-15,2-19.8,6.1c-4.8,4.1-7.1,9.2-7.1,15.4c0,5.4,1.3,10.4,3.9,15.2
				c2.6,4.7,7.8,8.5,15.4,11.4c5.1,1.8,10,3.4,14.8,4.7c4.8,1.4,10.1,3.2,15.8,5.5c4.3,1.8,8.3,4.1,12.2,6.9
				c3.9,2.8,7.1,6.4,9.6,10.8c2.5,4.4,3.7,10,3.7,16.7c0,7.1-1.8,14-5.4,20.5c-3.6,6.6-9.2,12-17,16.2c-7.7,4.2-17.8,6.3-30.2,6.3
				c-4.1,0-8.5-0.4-13.3-1.3c-4.7-0.9-9.5-2-14.5-3.3C369.2,1370.3,364.4,1368.8,359.5,1367.4z"/>
			<path d="M474.4,1367.4l-1.7-36.5h7.9l6.4,20.2c0.3,0.9,1,1.8,1.9,2.8c1,1,1.8,1.8,2.5,2.3c2.9,1.8,6.2,3.5,9.7,5
				c3.5,1.5,7,2.7,10.5,3.6c3.5,0.9,6.7,1.3,9.6,1.3c9.2,0,16.5-2.3,21.8-6.9s8.1-11.1,8.1-19.5c0-6.1-1.7-11-5.1-14.9
				c-3.4-3.9-8-7-13.7-9.5c-5.3-2.2-10.6-3.9-15.8-5.2s-10.3-3-15.5-5c-7.6-3.1-13.6-7.6-17.9-13.4c-4.3-5.8-6.4-12.8-6.4-20.9
				c0-7.6,2-14.5,6-20.6s9.4-10.9,16.3-14.5c6.9-3.6,14.6-5.4,23.1-5.4c4.9,0,9.7,0.3,14.3,1c4.6,0.7,9,1.5,13.3,2.5
				c4.3,1,8.3,2.1,12.2,3.2v34.1h-7.8l-5.8-19c-0.3-0.9-0.9-1.8-1.8-2.7c-0.9-0.9-1.8-1.6-2.5-2.1c-1.9-1.4-4.1-2.6-6.8-3.6
				c-2.7-1-5.5-1.8-8.4-2.3c-2.9-0.6-5.6-0.8-8-0.8c-8.4,0-15,2-19.8,6.1c-4.8,4.1-7.1,9.2-7.1,15.4c0,5.4,1.3,10.4,3.9,15.2
				c2.6,4.7,7.8,8.5,15.4,11.4c5.1,1.8,10,3.4,14.8,4.7c4.8,1.4,10.1,3.2,15.8,5.5c4.3,1.8,8.3,4.1,12.2,6.9
				c3.9,2.8,7.1,6.4,9.6,10.8c2.5,4.4,3.7,10,3.7,16.7c0,7.1-1.8,14-5.4,20.5c-3.6,6.6-9.2,12-17,16.2c-7.7,4.2-17.8,6.3-30.2,6.3
				c-4.1,0-8.5-0.4-13.3-1.3c-4.7-0.9-9.5-2-14.5-3.3C484.2,1370.3,479.3,1368.8,474.4,1367.4z"/>
		</g>
	</g>
	<path class="st0" d="M539,970.8c0,1.5-0.1,3-0.3,4.5c0.2,1.5,0.3,3,0.3,4.5v151.4c0,16.6-13.5,30.1-30.1,30.1
		c-16.6,0-30.1-13.5-30.1-30.1V979.8c0-1.5,0.1-3,0.3-4.5c-0.2-1.5-0.3-3-0.3-4.5v-246L539,761V970.8z"/>
</g>
</svg>
