<?xml version="1.0" encoding="UTF-8"?>
<svg id="Layer_1" data-name="Layer 1" xmlns="http://www.w3.org/2000/svg" viewBox="0 0 1440 1440">
  <defs>
    <style>
      .cls-1 {
        fill: #a92617;
      }

      .cls-2 {
        fill: #6c6142;
      }

      .cls-3 {
        fill: #9e8c58;
      }

      .cls-4 {
        fill: #fef1a7;
      }

      .cls-5 {
        fill: #da9d36;
      }

      .cls-6 {
        fill: #167f39;
      }

      .cls-7 {
        fill: #1a4228;
      }

      .cls-8 {
        fill: #990d13;
      }

      .cls-9 {
        fill: #222;
      }

      .cls-10 {
        fill: #284907;
      }

      .cls-11 {
        fill: #9d1415;
      }

      .cls-12 {
        fill: #8b080d;
      }

      .cls-13 {
        fill: #a5514c;
      }

      .cls-14 {
        fill: #fae8ce;
      }

      .cls-15 {
        fill: #d8bf72;
      }

      .cls-16 {
        fill: #183152;
      }

      .cls-17 {
        fill: #e4d187;
      }

      .cls-18 {
        fill: #1a9a45;
      }

      .cls-19 {
        fill: #0b2954;
      }

      .cls-20 {
        fill: #fdf7d6;
      }

      .cls-21 {
        fill: #42709a;
      }

      .cls-22 {
        fill: #93090d;
      }

      .cls-23 {
        fill: #212121;
      }

      .cls-24 {
        fill: #6d6243;
      }

      .cls-25 {
        fill: #c5ae66;
      }

      .cls-26 {
        fill: #057730;
      }

      .cls-27 {
        fill: #eec84c;
      }

      .cls-28 {
        fill: #1d1d1d;
      }

      .cls-29 {
        fill: #202020;
      }

      .cls-30 {
        fill: #d4a591;
      }

      .cls-31 {
        fill: #7c7860;
      }

      .cls-32 {
        fill: #b7a262;
      }

      .cls-33 {
        fill: #f8e5c7;
      }

      .cls-34 {
        fill: #a44c47;
      }

      .cls-35 {
        fill: #70563b;
      }

      .cls-36 {
        fill: #b74f3a;
      }

      .cls-37 {
        fill: #fee083;
      }

      .cls-38 {
        fill: #977d24;
      }

      .cls-39 {
        fill: #252523;
      }

      .cls-40 {
        fill: #f47336;
      }

      .cls-41 {
        fill: #097932;
      }

      .cls-42 {
        fill: #1e1e1e;
      }

      .cls-43 {
        fill: #f1d5a7;
      }

      .cls-44 {
        fill: #b09c60;
      }

      .cls-45 {
        fill: #fefefe;
      }

      .cls-46 {
        fill: #375d80;
      }
    </style>
  </defs>
  <path class="cls-23" d="M37.6,490.87c7.23-23.74,16.44-46.75,27.03-69.14C151.76,237.33,291.04,109.94,482.82,40.16c1.96-.71,3.84-1.94,6.1-1.59,6.17-.28,11.68-3.1,17.39-4.91,31.26-9.91,63.12-17.33,95.42-22.77,14.82-2.5,29.79-4.23,44.78-5.81,26.58-2.8,53.23-4.09,79.91-3.96,16.73,.08,33.5,.77,50.19,2.12,16.05,1.3,32.15,2.8,48.02,5.46,26.89,4.5,53.75,9.36,79.98,17.05,1.55,.45,3.1,.86,4.58-.21,23.62,5.71,46.53,13.65,69.18,22.36,208.65,80.25,368.96,253.76,432.28,467.83,.6,2.03,.91,4.14,1.35,6.22-.96,1.35-.45,2.73-.06,4.09,6.48,22.89,11.61,46.07,15.84,69.48,3.47,19.2,5.91,38.48,7.98,57.88,3.14,29.48,3.44,59,2.9,88.54-.27,14.69-1.22,29.4-2.88,44.06-1.13,10.03-1.91,20.1-3.35,30.1-3.3,22.98-7.65,45.75-12.68,68.41-1.32,5.94-4.33,11.62-3.46,17.99-3.67,17.85-9.45,35.09-15.4,52.25-75.22,217.21-249.26,385.63-468.46,453.42-25.58,7.91-51.56,14.29-77.88,19.27-1.39,.26-2.82,.3-4.24,.45-9.31-.03-18.24,2.72-27.41,3.73-10.57,1.17-21.1,2.66-31.68,3.8-12.35,1.33-24.79,1.28-37.1,2.98-1.59,.22-3.21,.11-4.82,.11-18.19,0-36.38,.51-54.56-.07-14.53-.47-29.03-1.63-43.54-2.93-23.36-2.09-46.44-5.78-69.51-9.81-4.5-.79-8.85-2.94-13.61-1.83-105.87-22.88-201.97-67.12-287.42-133.59-126.87-98.69-212.06-225.69-255.36-380.59-4.61-16.48-8.86-33.08-11.43-50.04,.16-8.42-2.57-16.41-3.63-24.66-1.6-12.49-3.52-24.93-5-37.43-2.08-17.46-3.15-35.02-3.85-52.53-.72-18.14-1.34-36.38,.58-54.55,.76-7.24,.56-14.54,1.07-21.83,1.79-25.69,5.01-51.17,9.5-76.52,5.84-32.96,14.01-65.3,24.52-97.07,.45-1.37,.75-2.75,.52-4.2h.02Z"/>
  <path class="cls-29" d="M909.19,25.55c-1.41,1.73-3.22,1.25-4.92,.76-21.54-6.1-43.41-10.76-65.5-14.26-14.69-2.33-29.51-3.89-44.28-5.72-19.08-2.37-38.34-2.16-57.44-3.59-18.8-1.41-37.4,.15-56.02,.71-24.94,.76-49.75,4.15-74.5,7.93-36.45,5.57-71.99,14.64-107.22,25.2-3.38,1.01-6.35,4.32-10.38,1.99,13.65-5.58,27.96-9.1,42.05-13.25,16.65-4.9,33.62-8.53,50.63-11.94,3.91-.78,7.88-1.22,11.82-1.82,1.86-.96,4.12,.34,5.91-1.04,4.66-1.55,9.42-2.45,14.35-2.16,1.9-.93,4.15,.23,6.01-1,.21-.3,.46-.33,.73-.09,2.15-1.06,4.63,.3,6.76-.92,.53-.05,1.06-.1,1.59-.15,2.24-.98,4.76,.23,6.98-.9,.61-.05,1.22-.11,1.83-.16,2.51-1.12,5.33,.35,7.82-.93l2.64-.12c2.97-1.14,6.21,.34,9.16-.96,.86-.39,1.72-.57,2.61-.1,4.06-1.3,8.37,.48,12.41-1.02C694.81-.03,717.41-.44,740.04,.42c14.23,.54,28.5,.64,42.64,2.7,2.95,1.31,6.2-.17,9.18,.97,.87,.04,1.75,.07,2.62,.11,2.51,1.28,5.35-.17,7.88,.92l2.86,.25c1.89,.9,4.03,0,5.93,.83,.52,.04,1.04,.08,1.55,.13,2.16,1.24,4.67-.1,6.85,.93l.34-.17,.3,.24c2.11,1.41,4.65-.09,6.81,1,2.51,1.97,5.58,.2,8.22,1.24,1.7,1.16,3.82-.14,5.53,.95,1.82,1.86,4.22,.31,6.23,1.05,1.71,1.43,3.94,0,5.72,1.05,7.87,1.78,15.69,3.76,23.61,5.28,8.91,1.71,17.73,3.71,26.38,6.45,2.08,.66,4.33,.8,6.5,1.17v.03Z"/>
  <path class="cls-42" d="M37.6,490.87c1.94,1.78,.65,3.61,.07,5.41-6.72,20.62-12.6,41.47-17.3,62.64-4.92,22.14-9.24,44.36-11.93,66.93-2.45,20.62-3.96,41.27-5.41,61.96-1.29,18.37-1.14,36.73-.6,55.03,.52,17.68,1.94,35.38,3.79,53.03,2.08,19.75,5.05,39.33,8.67,58.83,.31,1.66,.74,3.59-.99,4.96-1.76-5.84-3.2-11.74-3.26-17.89-1-1.79,.32-3.98-.98-5.71l-.25-.31,.15-.36c-1.04-2.16,.4-4.7-1.06-6.79l.03,.08c-1.02-1.7,.15-3.76-.87-5.46-.07-.64-.14-1.28-.21-1.91-1.12-2.11,.31-4.58-.95-6.67-.05-.58-.1-1.15-.16-1.73-1.01-2.19,.31-4.68-.91-6.84-.05-.55-.1-1.1-.15-1.65-1.18-2.93,.51-6.19-1.03-9.09-2.41-16.07-3.04-32.28-3.66-48.48-1.02-26.75-.85-53.49,1.68-80.17,1.2-3.25-.27-6.73,.86-9.99,.07-.96,.14-1.92,.2-2.88,1.11-2.61-.15-5.47,.88-8.09,.03-.52,.06-1.03,.09-1.55,1.29-2.59-.08-5.5,.99-8.11,.03-.51,.05-1.02,.08-1.54,1.28-2.21-.03-4.78,.97-7.03,.07-.88,.14-1.75,.21-2.63,1.01-1.8-.05-3.92,.85-5.74,.07-.59,.14-1.18,.2-1.76,1.07-1.79-.06-3.91,.87-5.71l-.16-.38,.25-.32c1.25-1.83,.06-4.06,.99-5.94,.88-12.84,3.85-25.33,6.59-37.83,5.43-24.83,11.8-49.42,20.18-73.44,.34-.98,.84-1.9,1.27-2.85v-.02Z"/>
  <path class="cls-42" d="M1416.28,902.52c-1.64-1.46-1.13-3.23-.68-4.95,5.89-22.47,10.37-45.19,13.77-68.19,2.75-18.59,4.61-37.22,6.34-55.92,2.45-26.3,2.52-52.65,1.77-78.95-.47-16.6-2.09-33.21-3.69-49.8-2.38-24.74-6.55-49.14-11.27-73.45-2.73-14.08-6.91-27.87-10.38-41.81-.61-2.45-2.57-4.94-.16-7.49,2.73,10.68,5.68,21.31,8.12,32.05,3.03,13.31,6.58,26.53,8.07,40.16,.12,1.13,.71,2.22,1.07,3.33,.96,1.88-.32,4.15,1.04,5.95,.04,2.42-.06,4.87,1.11,7.11,.94,1.81-.23,3.95,.9,5.73,.06,.56,.12,1.13,.17,1.69,1.04,2.2-.39,4.75,.99,6.9,.29,.2,.32,.43,.08,.69,1.1,2.53-.4,5.39,.99,7.88,2.22,12.12,2.82,24.42,3.74,36.67,2.01,26.72,2.05,53.47,1.16,80.23-.06,1.77-.39,3.53-.59,5.29-1.61,5.12,.32,10.49-1.05,15.63,.53,1.25,.26,2.47-.11,3.69-1.29,3.27,.21,6.79-.91,10.07-.06,.93-.12,1.86-.18,2.79-1.18,2.59,.13,5.45-.9,8.06-.06,.89-.13,1.78-.19,2.67-1.09,2.24,.08,4.76-.89,7.01-.04,.52-.08,1.04-.11,1.56-1.24,2.22,.05,4.78-.97,7.03l-.11,1.55c-1.13,1.87-.07,4.09-.94,6-.75,5.14-1.5,10.29-2.24,15.43-1.26,1.75,.02,3.92-.97,5.72-2.03,6.45-2.69,13.21-4.11,19.8-2.72,12.64-4.99,25.37-8.76,37.76-.2,.66-.09,1.41-.12,2.12h.01Z"/>
  <path class="cls-28" d="M568.09,1423.88c1.02-1.77,2.68-1.56,4.26-1.27,14.97,2.69,29.86,6.06,44.93,7.93,10.52,1.31,21.01,3.01,31.62,3.86,21.78,1.74,43.54,3.14,65.41,3.17,20.19,.02,40.32-.34,60.46-2.01,12.01-.99,24.02-1.75,35.95-3.46,11.03-1.58,22.05-3.19,33.07-4.86,2.27-.34,4.51-1.29,6.51,.67v-.02c-1.68,1.08-3.8-.27-5.46,.98-2.28,1.03-4.67,1.45-7.17,1.2-1.79,.99-3.96-.3-5.7,.96-.5,.04-1,.07-1.49,.11-1.91,.9-4.17-.27-6.02,1l-.3,.25-.35-.17c-2.18,1.04-4.71-.37-6.85,.96l-.35,.25-.41-.16c-2.14,1.05-4.61-.28-6.74,.9-.61,.06-1.22,.11-1.83,.17-2.15,1.03-4.6-.25-6.74,.87-.92,.07-1.83,.14-2.75,.21-2.93,1.12-6.15-.42-9.06,.96-.53,.03-1.07,.06-1.6,.1-3.68,1.21-7.61-.48-11.27,1-.52,.02-1.05,.04-1.57,.06-4.06,1.16-8.31-.36-12.35,.9-26.16,2.21-52.34,1.74-78.52,.58-11.02-.49-22.07-.82-32.99-2.65-2.89-1.37-6.08,.18-8.99-.95l-2.82-.22c-2.12-1.11-4.56,.19-6.69-.88-.63-.06-1.26-.11-1.89-.17-2.1-1.17-4.55,.19-6.66-.91l-.44,.15-.39-.25c-2.12-1.3-4.62,.11-6.78-.95l-.39,.16-.33-.25c-1.85-1.23-4.09-.07-5.99-.98-.51-.04-1.02-.08-1.52-.13-1.72-1.22-3.88,.07-5.63-.96-4.35,.18-8.52-.62-12.57-2.16-1.69-1.43-3.92,.02-5.68-1.05-5.48-.08-10.68-1.65-15.94-2.96l.02,.02Z"/>
  <path class="cls-23" d="M1437.8,771.27c.46-5.2-1.31-10.55,1.05-15.63,.05,5.24,.27,10.48-1.05,15.63Z"/>
  <path class="cls-23" d="M672.24,2.01c-3.98,2.24-8.27,.62-12.41,1.02,4.06-1.23,8.24-1.09,12.41-1.02Z"/>
  <path class="cls-23" d="M762.31,1438.44c3.99-2.02,8.23-.64,12.35-.9-4.05,1.23-8.21,.96-12.35,.9Z"/>
  <path class="cls-23" d="M776.23,1437.48c3.58-2.29,7.51-.66,11.27-1-3.68,1.17-7.47,1.07-11.27,1Z"/>
  <path class="cls-23" d="M1436.77,785.03c.24-3.36-1.1-6.87,.91-10.07,.13,3.4,.14,6.78-.91,10.07Z"/>
  <path class="cls-23" d="M3.13,656.67c-.21,3.34,1.04,6.8-.86,9.99-.12-3.36-.22-6.73,.86-9.99Z"/>
  <path class="cls-23" d="M657.23,3.14c-2.86,2.1-6.1,.63-9.16,.96,2.97-1.11,6.06-1.09,9.16-.96Z"/>
  <path class="cls-23" d="M791.85,4.1c-3.06-.35-6.31,1.15-9.18-.97,3.11-.11,6.21-.19,9.18,.97Z"/>
  <path class="cls-23" d="M789.1,1436.39c2.83-2.13,6.03-.73,9.06-.96-2.94,1.05-5.99,1.1-9.06,.96Z"/>
  <path class="cls-23" d="M641.8,1435.42c3.01,.22,6.18-1.15,8.99,.95-3.05,.16-6.07,.07-8.99-.95Z"/>
  <path class="cls-23" d="M4.25,795.31c2.25,2.81,.76,6.05,1.03,9.08-1.05-2.95-1.1-6.01-1.03-9.08Z"/>
  <path class="cls-23" d="M645.43,4.22c-2.41,1.97-5.21,.69-7.82,.93,2.52-1.07,5.17-1.01,7.82-.93Z"/>
  <path class="cls-23" d="M802.35,5.14c-2.64-.22-5.45,1.07-7.88-.92,2.67-.09,5.35-.15,7.88,.92Z"/>
  <path class="cls-23" d="M1434.54,633.45c-2.1-2.4-.76-5.24-.99-7.88,1,2.54,1.1,5.2,.99,7.88Z"/>
  <path class="cls-23" d="M1435.69,795.88c.24-2.69-1.06-5.56,.9-8.06,.04,2.72,.31,5.47-.9,8.06Z"/>
  <path class="cls-23" d="M4.22,645.71c-.24,2.7,1.03,5.57-.88,8.09-.06-2.73-.25-5.48,.88-8.09Z"/>
  <path class="cls-23" d="M5.3,636.05c-.3,2.71,1.1,5.62-.99,8.11-.09-2.75-.15-5.51,.99-8.11Z"/>
  <path class="cls-23" d="M635.78,5.31c-2.12,1.87-4.64,.7-6.98,.9,2.22-1.12,4.61-.95,6.98-.9Z"/>
  <path class="cls-23" d="M800.91,1435.22c2.05-1.79,4.47-.75,6.74-.87-2.15,1.01-4.44,1.03-6.74,.87Z"/>
  <path class="cls-23" d="M627.21,6.37c-2.04,1.87-4.49,.74-6.76,.92,2.17-.94,4.45-1.03,6.76-.92Z"/>
  <path class="cls-23" d="M1433.48,624.87c-2.02-2.06-.81-4.57-.99-6.89,1.03,2.2,1.09,4.53,.99,6.89Z"/>
  <path class="cls-23" d="M8.49,828.59c2.16,1.98,.87,4.5,1.06,6.79-.97-2.17-1.14-4.46-1.06-6.79Z"/>
  <path class="cls-23" d="M6.49,814.62c1.88,2,.78,4.43,.95,6.67-1.07-2.12-1.02-4.39-.95-6.67Z"/>
  <path class="cls-23" d="M5.42,806.04c1.89,2.07,.77,4.54,.91,6.84-1.03-2.18-1.04-4.5-.91-6.84Z"/>
  <path class="cls-23" d="M1434.61,805.56c.2-2.35-.95-4.87,.89-7.01,.06,2.38,.23,4.78-.89,7.01Z"/>
  <path class="cls-23" d="M6.35,627.48c-.21,2.36,1.02,4.92-.97,7.03-.07-2.4-.21-4.81,.97-7.03Z"/>
  <path class="cls-23" d="M1433.53,814.14c.24-2.35-1-4.91,.97-7.03,.09,2.4,.13,4.79-.97,7.03Z"/>
  <path class="cls-23" d="M826.99,8.35c-2.29-.2-4.79,1.02-6.81-1,2.34-.11,4.63,.06,6.81,1Z"/>
  <path class="cls-23" d="M819.55,7.28c-2.3-.18-4.79,.98-6.85-.93,2.34-.11,4.65,0,6.85,.93Z"/>
  <path class="cls-23" d="M623.75,1433.25c2.24,.16,4.65-.9,6.66,.91-2.27,.09-4.55,.17-6.66-.91Z"/>
  <path class="cls-23" d="M616.14,1432.21c2.29,.14,4.74-.98,6.78,.95-2.32,.11-4.62,.06-6.78-.95Z"/>
  <path class="cls-23" d="M816.98,1433.17c2.05-1.96,4.54-.82,6.85-.96-2.18,1.02-4.51,1.05-6.85,.96Z"/>
  <path class="cls-23" d="M809.48,1434.17c2.04-1.83,4.47-.77,6.74-.9-2.14,1.07-4.44,.99-6.74,.9Z"/>
  <path class="cls-23" d="M632.3,1434.33c2.25,.14,4.65-.89,6.69,.88-2.29,.16-4.55,.12-6.69-.88Z"/>
  <path class="cls-23" d="M811.14,6.22c-2-.15-4.15,.81-5.93-.83,2.03-.07,4.07-.26,5.93,.83Z"/>
  <path class="cls-23" d="M1429.27,842.84c.09-1.94-.85-4.06,.97-5.72,.12,1.98-.05,3.91-.97,5.72Z"/>
  <path class="cls-23" d="M619.71,7.37c-1.74,1.89-3.98,.8-6.01,1,1.87-1.13,3.94-1.06,6.01-1Z"/>
  <path class="cls-23" d="M584.03,1426.84c1.94,.1,4.07-.87,5.68,1.05-1.97,.07-3.89-.11-5.68-1.05Z"/>
  <path class="cls-23" d="M7.65,823.2c1.61,1.61,.78,3.61,.87,5.46-.97-1.71-.96-3.58-.87-5.46Z"/>
  <path class="cls-23" d="M1432.48,821.7c.15-2.03-.88-4.24,.94-6,.09,2.06,.2,4.13-.94,6Z"/>
  <path class="cls-23" d="M602.28,1430.04c1.92,.09,4-.81,5.63,.96-1.95,.09-3.87,.06-5.63-.96Z"/>
  <path class="cls-23" d="M1430.3,603.44c-1.97-1.7-.88-3.93-1.04-5.95,1.04,1.86,1.11,3.89,1.04,5.95Z"/>
  <path class="cls-23" d="M609.43,1431.13c2.03,.14,4.25-.9,5.99,.98-2.06,.09-4.12,.11-5.99-.98Z"/>
  <path class="cls-23" d="M824.48,1432.13c1.74-1.91,3.98-.85,6.01-1-1.87,1.13-3.94,1.07-6.01,1Z"/>
  <path class="cls-23" d="M9.65,836.05c1.84,1.64,.89,3.77,.98,5.71-.97-1.79-1.1-3.73-.98-5.71Z"/>
  <path class="cls-23" d="M840.75,10.54c-1.87-.15-3.93,.76-5.53-.95,1.91-.07,3.81-.1,5.53,.95Z"/>
  <path class="cls-23" d="M844.85,1428.87c1.56-1.77,3.61-.88,5.47-.98-1.7,1.03-3.58,1.06-5.47,.98Z"/>
  <path class="cls-23" d="M7.41,619.11c-.06,1.94,.81,4.03-.85,5.74-.1-1.97-.19-3.94,.85-5.74Z"/>
  <path class="cls-23" d="M852.7,12.64c-1.95-.13-4.1,.89-5.72-1.05,1.99-.08,3.91,.15,5.72,1.05Z"/>
  <path class="cls-23" d="M599.35,10.53c-1.69,1.96-3.91,.88-5.91,1.04,1.85-1.02,3.88-1.06,5.91-1.04Z"/>
  <path class="cls-23" d="M8.48,611.64c-.06,1.94,.81,4.02-.87,5.71-.1-1.96-.1-3.91,.87-5.71Z"/>
  <path class="cls-23" d="M9.57,604.99c-.14,2.01,.89,4.22-.99,5.94-.1-2.05-.02-4.07,.99-5.94Z"/>
  <path class="cls-23" d="M1432.32,616.29c-1.73-1.69-.82-3.79-.9-5.73,1.03,1.8,.99,3.76,.9,5.73Z"/>
  <path class="cls-23" d="M831.99,1431.02c1.65-1.81,3.76-.88,5.7-.96-1.78,1.03-3.73,1.05-5.7,.96Z"/>
  <path class="cls-6" d="M555.38,381.51c15.43-1.15,30.65-3.83,45.88-6.4,3.42-.58,2.6-2.98,1.96-4.92-5.14-15.6-6.62-31.63-6.07-47.96,.72-21.34,6.53-41.18,16.62-59.96,14.24-26.5,35.27-45.95,61.99-59.06,14.85-7.29,30.79-11.34,47.52-12.73,15.81-1.31,31.3-.06,46.51,3.61,16.16,3.9,31.11,10.95,44.8,20.51,10.73,7.49,20.34,16.28,28.45,26.46,16.29,20.43,26.6,43.51,29.75,69.68,2.2,18.26,1.43,36.33-3.49,53.98-5.5,19.73-14.49,37.85-28.25,53.28-6.66,7.46-6.84,7.42,1.32,13.25,12,8.58,24.08,17.04,36.12,25.55,.28,.2,.48,.52,.72,.78-2.34,1.9-4.02,.02-5.69-1.12-11.65-7.95-23.43-15.73-34.77-24.08-4.01-2.96-6.5-2.67-10.03,.41-12.32,10.73-25.64,19.91-41.11,25.68-23.3,8.7-47,12.29-71.95,8.56-22.61-3.38-43.12-11.39-61.57-24.47-21.6-15.32-37.44-35.58-47.8-59.94-1.84-4.32-3.9-5.08-8.11-3.97-12.44,3.3-25.28,3.94-38.01,5.26-1.59,.16-3.22,.05-4.64-.91-.47-.45-.52-.95-.15-1.49h0Z"/>
  <path class="cls-10" d="M903.92,475.9c2.53,4.96,2.31,9.83-.47,14.62-7.94,13.68-15.74,27.45-23.87,41.02-8.93,14.9-18.79,29.26-26.54,44.85-9.57,19.24-17.77,39.02-24.67,59.43-6.37,18.84-12.06,37.89-18.33,56.75-6.92,20.82-11.43,42.31-16.88,63.55-4.76,18.57-7.59,37.49-11.08,56.26-2.19,11.78-3.02,23.88-4.72,35.81-1.77,12.45-2.98,24.97-4.65,37.44-.82,6.15-1.84,12.25-1.91,18.5-.06,5.13-.67,10.26-1.03,15.39,1.39,1.43,1.37,3.2,1.22,5.01-1.19,14.21-.15,28.5-1.64,42.7-.41,3.9-.55,7.82-1.79,11.57-1.5,2.48-3.54,1.82-5.6,.91-6.52-2.9-13.13-5.61-19.36-9.13-6.54-3.7-8.67-16.29-3.69-21.97,4.78-5.45,5.2-11.24,1.15-16.21-1.85-1.71-3.88-3.14-6.28-3.98-4.91-1.71-10.86-.28-13.71,3.3-3.26,4.08-3.66,10.59-.92,14.99,3.3,5.31,2.25,14.77-2.13,19.2-.25,.25-.48,.64-.79,.7-7.29,1.37-14.31,5.37-22.06,2.24-1.41-2.38-1.79-5.03-1.96-7.71-2.32-35.79-4.55-71.6-3.23-107.48,1-27.09,1.06-54.19,2.83-81.27,1.6-24.56,3.29-49.09,5.81-73.56,.55-5.32,1.54-10.61,2.6-15.83,4.71-23.1,7.44-46.51,10.67-69.81,2.26-16.32,6.3-32.19,9.38-48.29,.49-2.54,2-4.17,4.45-4.84,13.18-3.58,25.07-10.2,37.22-16.11,22.79-11.07,46.25-20.69,69.11-31.6,20.6-9.83,41.62-18.75,62.18-28.66,1.62-.78,3.07-1.82,4.57-2.76,2.34-1.3,4.04-3.39,6.11-5.03h0Z"/>
  <path class="cls-5" d="M694.79,968.92c6.53,.88,12.47-2.83,18.98-2.41,1.88,.12,3.17-1.59,3.79-3.35,1.06-3.01,2.01-6.07,2.92-9.13,.61-2.07-.16-3.64-1.6-5.29-4.63-5.31-4.42-12.73,.28-18.41,3.65-4.41,12.33-5.61,17.67-2.31,1.48,.92,2.7,2.27,4.04,3.42,4.51,6.39,3.87,12.96-1.96,17.78-1.71,1.41-2.29,2.9-2.38,4.99-.18,3.97,.96,7.72,1.62,11.55,.27,1.53,1.24,2.68,2.51,3.27,9.54,4.45,18.61,10.03,29.06,12.33,8.73,3.13,16.46,8.25,24.69,12.38,3.15,1.58,5.92,4.77,10.1,3.39,1.5-2.73,2.29-5.71,2.36-8.72,.56-24,13.57-39.82,33.65-50.65,16.13-8.7,33.23-11.04,51.17-6.04,3.18,.89,5.73,2.7,8.63,3.95,22.42,8.22,38.52,30.81,34.13,57-3.91,23.34-18.7,38.09-40.25,46.56-9.04,3.55-18.44,5.41-28.19,4.92-3.63-.18-5.51,2.31-7.54,4.41-9.38,9.72-19.95,17.7-32.59,22.64-5.78,2.26-11.82,3.97-18,4.75-12.7,1.6-24.27,6.46-35.71,11.81-3.23,1.51-5.35,3.92-7.03,7.02-2.63,4.84-2.27,6.92,2.44,9.39,10.51,5.51,21.94,8.14,33.41,10.7,11.84,2.64,23.29,6.44,33.96,12.3,3.48,1.91,6.25,4.71,8.29,8.17,0,3.08-2.33,3.37-4.45,3.33-12.59-.21-25.17,.41-37.79-.62-13.98-1.14-28.07-.33-42.11-.29-5.66,.02-11.36-.71-16.97,.58-.51,.37-1.04,.73-1.55,1.1-1.63,.84-3.05,.09-4.49-.58-.56-.32-1.13-.61-1.74-.85-1.41-.33-2.85-.27-4.27-.29-39.76-.32-79.51-1.65-119.28-1.12-2.59,.03-5.42,.69-7.6-1.55,5.81-2.96,10.56-7.66,16.98-9.71,9.6-3.07,19.49-4.21,29.41-4.96,11.77-.9,23.38-2.58,34.79-5.57,4.19-1.1,7.82-3.52,11.05-6.35,6.87-6.02,6.51-16.33-.94-21.73-8.35-6.06-18.23-8.78-27.92-11.7-16.54-4.99-34.03-6.09-50.46-11.31-12.85-4.08-25.75-8.14-38.55-12.43-18.27-6.13-34.73-15.15-50.61-25.72-13.8-9.19-26.46-19.8-39.1-30.47-2.87-2.42-2.72-4.65,.32-6.31,10.51-5.73,21.75-8.67,33.79-8.25,2.07,.07,3.12,1.62,4.33,2.87,9.72,10.07,22.03,15.56,35.12,19.4,5.07,1.48,10.52,1.65,15.8,2.39,1.2,.17,2.69,.73,3.52-.38,1.27-1.7-1.53-2.09-1.46-3.52,1.36-1.27,2.85-.69,3.87,.22,3.14,2.81,6.39,1.97,10.04,1.22,11.01-2.28,21.76-5.73,32.89-7.45,1.42-.01,2.47-.96,3.67-1.52,10.24-5.42,20.2-11.36,30.78-16.17,10.19-4.63,21.03-6.69,31.83-9,.88-.19,1.77-.11,2.6,.33h.05Z"/>
  <path class="cls-46" d="M805.15,998.97c-4.44,1.9-7.01-2.09-10.19-3.57-8.5-3.95-16.32-9.3-25.15-12.62-1.3-.8-2.72-1.47-3.26-3.08,2.5-19.99,1.45-40.16,3.23-60.19,3.16-4.97,2.61-10.91,3.96-16.34,2.96-11.9,6.47-23.63,9.74-35.43,3.79-13.69,7.23-27.49,12.66-40.7,5.66-13.8,11.41-27.61,16.07-41.76,9.07-27.56,21.88-53.55,33-80.24,10.86-26.09,23.94-51.2,37.07-76.23,6.02-11.47,12.55-22.68,18.83-34.02,.69-1.25,1.19-2.62,2.7-3.16,.45-.49,.89-.49,1.33,.01-.72,5.28,1.59,8.91,5.45,12.49,5.86,5.45,10.19,12.34,15.42,18.43,6.99,8.13,14.06,16.16,21.85,23.51,20.4,19.28,38.07,41.07,56.9,61.79,6,6.6,12.13,13.08,18.14,19.66,2.96,3.24,6.06,3.68,10.5,2.14,21.71-7.56,42.69-17.03,64.37-24.61,13.63-4.76,27.36-9.23,40.95-14.1,1.71-.61,3.43-1.07,5.14,.02,.28,.3,.38,.61,.3,.92-.08,.32-.16,.48-.24,.48h.02c-4.02,3.95-9.53,4.81-14.52,6.49-23.34,7.85-46.59,15.94-69.32,25.45-6.58,2.75-13.25,5.4-20.1,7.34-8.96,2.54-15.77,8.07-22.24,14.29-11.06,10.64-21.64,21.76-32.96,32.17-8.9,8.19-16.85,17.44-24.8,26.61-13.43,15.51-27.43,30.52-40.29,46.53-17.43,21.7-35.39,43-50.31,66.59-1.81,2.87-4.07,5.43-5.86,8.31-.19,.45-.41,.89-.61,1.34-.61,1.26-.05,3.14-1.94,3.73-22.43,3.98-38.91,16.23-49.23,36.37-2.17,4.23-3.99,8.98-4.09,14.17-.11,5.79-.9,11.58-2.55,17.2h.03Z"/>
  <path class="cls-37" d="M627.26,996.76c-11.22,.85-21.74,4.99-32.72,7.1-5.1,.98-9.49,2.53-13.45-2.06-.37-.43-1.32-.36-1.99-.51-17.15-13.46-32.17-29.24-47.93-44.21-2.06-1.95-4.24-3.78-6.36-5.67-.33-2.04,.96-3.34,2.14-4.68,1.3-1.48,2.48-3.04,3.7-4.58,7.15-9.1,8.32-18.66,2.37-28.86-1.26-2.17-2.57-4.28-4.13-6.24-5.86-7.39-12.4-14.49-10.39-25.39-3.25,2.75-4.81,6.09-6.35,9.46-.5,1.1-.87,2.63-2.28,2.7-1.69,.09-2.27-1.54-2.91-2.77-2.4-4.65-2.76-9.5-1.45-14.56,1.65-6.37,3.97-12.49,5.03-19.1,2.09-13.07-1.68-24.13-9.38-34.3,3.84,7.75,3.56,15.39-.25,23.09-3.35,6.76-7.5,12.96-12.29,18.76-5.57,6.74-12.23,12.51-17.34,19.66-.82,1.15-1.89,2.19-3.57,1.92-11.47-15.19-22.52-30.67-33.2-46.43-8.67-12.8-17.84-25.58-24.84-39.08-11.6-22.37-26.85-42.5-37.76-65.17-1.99-4.14-4.25-8.16-6.38-12.24-7.9-13.79-16.14-27.37-24.62-40.81-10.61-17.9-19.27-36.79-28.32-55.48-3.43-7.08-8.21-13.29-12.57-19.76-2.71-4.03-2.31-7.35,1.48-10.1,2.98-2.16,5.72-4.76,9.33-5.95,.77,3.31-2.12,4.14-3.94,5.57-2.44,1.92-4.99,3.59-4.03,7.36,.98,3.88,4.13,3.87,7.17,4.23,12.86,1.53,24.79,6.58,37.18,9.88,17.72,4.73,35.16,10.49,53.25,13.86,5.74,1.07,11.06,3.82,16.59,5.72,7.03,2.42,14.71,3.03,21.73,5.23,8.59,2.69,17.65,4.19,25.73,8.46,1.85,2.93,4.62,2.9,7.56,2.31,4.14,.78,7.7,.22,10.08-3.84,.74-1.26,1.87-2.76,3.85-1.61,.79,1.94-.08,3.77-1.21,4.96-3.28,3.45-2.24,6.56-.8,10.59,8.46,23.69,17.78,47.06,25.45,71.05,15.72,49.17,34.23,97.32,56.47,143.93,12.83,26.89,27.28,52.98,41.83,78.99,5.93,10.6,12.91,20.54,18.8,31.16,1.39,2.51,2.46,4.75,.7,7.42h.02Z"/>
  <path class="cls-37" d="M479.2,420.21c2.18,2.45,4.35,4.9,6.53,7.35,7.08,9.35,13.43,19.07,17.71,30.12,6.95,17.97,9.25,36.35,5.73,55.34-.53,2.87-.41,5.65-.34,8.49-7.39,25.5-21.76,45.92-44.1,60.54-15.09,9.88-31.51,15.19-49.62,16.55-21.79,1.64-41.72-3.16-60.53-13.8-3.91-2.22-7.47-4.9-10.94-7.7-2.62-2.11-4.91-2.35-7.72-.47-1.92,1.29-3.95,2.42-5.89,3.7-1.63,1.08-3.35,2.29-5.29,.48,2.83-2.03,5.58-4.18,8.5-6.07,5.17-3.35,5.23-3.46,.83-7.88-.62-.62-1.16-1.31-1.74-1.97-7.11-7.89-12.84-16.74-17.92-26.03-4-7.2-6.39-14.93-7.6-23.06-3.08-14.45-2.01-28.91-.14-43.37,.95-5.04,2.32-9.95,4.53-14.59,4-11.39,11.37-20.81,17.98-30.68,9.42-10.38,20.05-19.2,32.73-25.33,16.62-8.04,34.03-11.52,52.59-10.3,15,.99,29.02,4.8,42.07,12.02,8.22,4.55,16.01,9.86,22.65,16.64l-.02,.02Z"/>
  <path class="cls-18" d="M903.92,475.9c.28,3.21-2.48,3.91-4.38,5.33-26.95,13.79-54.99,25.23-82.27,38.31-13.57,6.5-27.5,12.39-41.34,18.38-10.58,4.58-20.62,10.41-31.25,14.91-6.33,2.68-12.13,6.61-19.22,7.55-3.88,.51-6.94-.52-10-2.64-13.83-9.56-26.81-20.2-39.65-31.03-11.46-9.67-23.61-18.49-35.06-28.18-11.58-9.81-22.24-20.64-34.09-30.14-25.07-20.11-50.57-39.61-77.16-57.71-7.16-4.87-14.97-9.12-20.72-15.93-.28-.52-.44-1.07-.49-1.66,.42-4.67,2.68-7.07,6.5-7.49,12.49-1.37,25.09-1.36,37.53-3.32,1.06-.17,2.11-.39,3.06,.33,15.05-.75,30.04-2.04,44.68-5.83,3.89-1,5.45-.26,6.96,3.8,5.03,13.54,12.99,25.43,22.06,36.66,12.61,15.61,28.15,27.45,46.05,36.18,14.42,7.03,29.75,10.99,45.75,12.92,25.27,3.06,49.05-1.87,72.15-11.65,14.25-6.04,26.25-15.43,37.78-25.46,2.29-1.99,3.12-2.1,5.81-.12,13.12,9.66,26.63,18.81,40.05,28.07,.65,.45,1.7,.31,2.57,.44,8.69,5.48,18.89,8.93,24.69,18.31v-.03Z"/>
  <path class="cls-46" d="M904.99,591.75c-.39-.04-.79-.08-1.18-.12,1.44-1.54,3.35-.88,5.06-1.01,16.88-1.32,33.74-1.5,50.65-.06,8.45,.72,8.05,.19,8.64-8.23,2.28-32.23,17.36-56.52,45.79-72.24,13.17-7.29,27.46-11.11,42.37-10.49,36.48,1.51,66.6,21.49,80.02,57.01,6.26,16.55,7.18,33.37,2.77,50.75-3.77,14.86-10.39,27.77-21.03,38.74-4.79,4.94-4.44,4.75,.65,9.18,10.32,8.98,20.35,18.31,30.47,27.52,.2,.18,.11,.68,.16,1.03-2.81,1.49-4.29-.77-5.87-2.26-8.44-7.94-17.09-15.63-25.83-23.24-3.52-3.06-6.27-3.4-10.3-.57-29.73,20.87-61.52,22.87-93.62,7.14-23.58-11.56-38.07-31.68-44.83-57.15-.14-.52-.21-1.05-.33-1.57-2.66-12.23-2.65-12.62-15.18-12.93-14.43-.35-28.89-.59-43.32,.22-1.96,.11-3.99,.62-5.1-1.71h0Z"/>
  <path class="cls-33" d="M736.67,1138.06c.95,.46,1.9,.92,2.85,1.39,8.29,3.77,10.62,11.64,13.29,19.28,.14,1.07,.15,2.15,.19,3.23-.64,2.92,2.61,5.34,1.12,8.37-2.41,1.98-.95,4.64-1.04,6.95-.16,4.4-.33,8.84,.24,13.24,.09,1.69-.35,3.33-.39,5.01-.35,3.04-2,5.56-3.29,8.23-1.58,1.94-3.4,3.64-5.17,5.4-2.64,2.62-5.67,3.81-9.55,3.76-14.24-.2-28.48-.06-42.71-.1-1.58,0-3.21,.36-4.72-.42-53.36,.41-106.72-.05-160.08-.71-1.25-.02-2.5-.06-3.74,.05-2.26,.21-4.66,.11-5.48-2.24-.83-2.39,2.06-2.45,3.24-3.56,5.13-4.81,8.41-10.72,9.44-17.56,2.42-16.08-.02-31.26-9.45-44.9-.59-.86-1.04-1.82-1.56-2.74-1.32-3.59,.29-4.94,3.75-5.08,4.47-.19,8.88,.59,13.35,.58,42.83-.07,85.65-.06,128.48,0,2.35,0,5.07-.99,6.98,1.44-.84,2.35-2.92,1.68-4.56,1.68-18.9,.06-37.8,.06-51.16,.03,33.18,.45,71.89-.65,110.61-.49,5.48,.02,10.36,.45,13.42,5.8-1.22-2.38-4.65-3.25-4.04-6.66l-.02,.02Z"/>
  <path class="cls-8" d="M844.9,1137.23c24.1,.02,48.21,.34,72.31-.12,7.15-.14,11.24,2.94,14.85,8.23,4.61,6.75,5.62,14.63,6.56,22.3,1.58,12.96,1.82,26.03-4.88,37.99-3.44,6.14-7.84,10.47-16.02,9.9-22.08-1.52-44.24-.28-66.32-1.26-34.26-1.52-68.51-.31-102.75-.93-2.31-.04-4.67,.29-6.76-1.09,1.19-4.05,5.24-5.7,7.44-8.9,3.22-3.71,2.12-9.68,6.61-12.69,.13,.01,.32-.02,.48,.03,.15,.05,.27,.19,.4,.29-.3-8.02-.4-16.05-.02-24.07,.03-.54-.84-.35-1.27-.58-2.33-2.02-3.33-4.61-3.4-7.62-1.37-5.93-3.9-11.24-8.16-15.68-1.39-1.45-3.58-2.67-2.29-5.33,.91-.93,2.02-.39,3.03-.4,30.93-.38,61.85,.6,92.78,.57,2.5,0,4.96-.13,7.41-.63h0Z"/>
  <path class="cls-16" d="M861.98,927.16c7.08-11.67,14.75-22.97,22.86-33.94,14.89-20.13,30.66-39.62,47-58.56,13.23-15.33,26.68-30.52,40.5-45.37,14.7-15.8,31.16-29.78,45.84-45.57,6.7-7.2,15.06-11.66,24.39-14.49,13.59-4.13,26.41-10.31,39.74-15.1,15.18-5.46,30.4-10.81,45.62-16.19,5.32-1.88,10.67-3.7,16.01-5.55-3.46,5.87-7.87,11.06-12.92,15.5-18.8,16.52-37.47,33.18-57.02,48.86-12.16,9.75-23.13,20.97-34.85,31.28-11.2,9.85-22.6,19.48-34.09,28.99-3.23,2.67-5.27,6.23-8.17,9.13-11.22,11.22-22.98,21.92-34.08,33.23-14.17,14.44-27.32,29.86-40.51,45.23-8.1,9.44-14.91,19.95-23.89,28.64-2.15,.89-4.3,.08-6.22-.51-9.37-2.89-18.8-3.92-28.47-1.94-.76,.16-1.39,.02-1.81-.69-.45-.98-1.55-1.97,.05-2.92,8.05,.47,16.15-.62,20.88,0-4.74-.17-12.81,.14-20.87-.01v-.02Z"/>
  <path class="cls-25" d="M508.22,521.9c-2.92-4.87-.31-9.81,.29-14.53,1.25-9.8,.72-19.35-.63-29.08-2.41-17.27-9.34-32.39-19.81-46.13-.99-1.3-2.66-2.52-2.34-4.59,8.15,7.46,12.94,17.12,17.26,27,1.96,4.49,3.28,9.26,4.9,13.9,6.18,12.93,3.47,26.72,3.87,40.19-.05,3.34-2.6,6.4-1.13,9.9,1.39,1.44,3.4,.71,4.99,1.41,3.82,2.44,3.05,6.64,3.58,10.15,2.53,16.73,4.6,33.54,6.37,50.35,2.76,26.3,7.51,52.25,12.48,78.16,3.73,19.44,8.1,38.76,12.02,58.17,6.02,29.73,13.01,59.24,19.31,88.9,3.95,18.61,9.14,37.08,14.92,55.3,4.09,12.93,7.24,26.13,11.43,39.04,6.46,19.88,14,39.35,21.63,58.8,4.04,10.3,8.05,20.63,11.75,31.06,.53,1.49,1.38,2.97,.35,4.58-.39,1.09-1.07,1.9-2.2,2.27,.43-6.86-4.63-11.36-7.77-16.39-10.59-17-20.36-34.44-29.7-52.14-8.15-15.44-16.62-30.73-24.21-46.45-7.42-15.37-13.98-31.16-20.79-46.82-10.11-23.25-18.94-47.03-27.31-70.92-7.93-22.62-14.82-45.62-23.04-68.16-4.38-12-9.06-23.89-13.7-35.79-.71-1.81-1.29-2.97,.87-4.41,2.38-1.58,3.11-4.56,4.06-7.2-.19-2.21,1.24-3.66,2.5-5.14,11.71-13.74,21.57-28.87,32.49-43.19,2.55-3.35,2.44-7.02,1.91-10.73-2.75-19.23-5.33-38.48-7.37-57.79-.52-4.87-2.01-8.38-6.99-9.73h.01Z"/>
  <path class="cls-4" d="M508.22,521.9c5.24-.75,7.44,.61,8.07,6.78,2.07,20.32,5.16,40.53,7.92,60.78,.77,5.63-1.09,9.83-4.61,14.49-7.82,10.34-15.15,21.08-23.08,31.37-3.47,4.5-7.22,8.79-10.84,13.17-.91,.81-2.27,1.45-2.67,2.47-2.28,5.79-6.48,5.6-11.27,3.95-2.06-.97-4.67-.28-6.43-2.14-4.82,.05-8.57-3.34-13.44-3.8-6.08-.58-11.68-3.72-17.79-5.11-7.74-1.77-16-2.27-23.1-6.85-3.09-1.99-7.2-2.67-10.81-3.33-14.47-2.66-28.44-7.05-42.62-10.79-15.42-4.07-30.33-9.96-46.11-12.68-1.22-.21-2.5-.44-3.71-.31-3.41,.36-5.4-1.07-6.29-4.34-.93-3.39-.68-6.21,2.62-8.37,2.47-1.61,5.6-2.55,6.79-5.71,4.03-4.33,8.81-7.69,13.89-10.65,5.18-.16,8.08-4.68,12.38-6.64,2.48-1.13,3.79-1.07,5.54,.43,13.7,11.79,29.83,18.93,47.34,21.8,13,2.14,26.34,1.84,39.58-1.13,16.14-3.62,30.56-10.35,43.19-20.84,13.48-11.19,24.21-24.42,30.34-41.2,1.39-3.8,1.79-8.31,5.1-11.35h0Z"/>
  <path class="cls-21" d="M904.99,591.75c3.14,1.94,6.22-.28,9.36-.2,11.06,.28,22.13-.01,33.19,.15,5.85,.08,11.69,.73,17.55,.97,2.35,.1,2.84,1.24,3.09,3.34,2.5,21.08,11.47,39.2,26.69,53.76,15.7,15.02,34.7,22.68,56.7,23.47,21.79,.78,40.95-5.52,57.91-18.87,2.33-1.83,3.92-1.19,5.62,.18,4.55,3.66,9.1,7.34,13.45,11.24,5.95,5.35,11.73,10.91,17.55,16.41,.94,.89,1.89,1.63,3.25,1.61-.04,1.76-.08,3.52-.12,5.28-1.64,1.08-3.08,2.63-5.34,2.2-7.19,.58-13.43,4.3-20.22,6.25-10.33,2.96-20.29,7.21-30.45,10.81-11.25,3.99-22.38,8.25-33.32,13.05-7.53,3.3-15.5,5.62-23.25,8.42-9.69,3.5-11.69,2.84-19.04-5.62-5.94-6.85-12.17-13.45-18.11-20.29-21.15-24.34-43.26-47.75-65.97-70.64-7.91-7.97-15.58-16.56-21.63-26.29-1.93-3.1-5.91-4.08-7.51-8.03-1.22-3-1-4.9,.58-7.2h.02Z"/>
  <path class="cls-22" d="M467.71,886.5c8.16-9.43,16.72-18.54,24.36-28.37,8.99-11.56,15.23-24.05,5.38-39.13,3.25,.14,4.06,2.06,5.16,3.44,11.73,14.75,12.1,31.03,6.24,48.04-2.67,7.74-4.63,15.32,1.01,23.01,2.03-5.93,4.35-11.29,9.54-14.73,.35,.28,.88,.54,.85,.69-1.93,9.59,1.29,17.47,7.9,24.28,.98,1.01,1.74,2.26,2.57,3.42,10.92,15.22,10.08,27.05-2.82,40.65-1.09,1.15-2.05,2.42-3.07,3.62-2.26-.52-3.65,1.14-5.25,2.15-10.81,6.8-21.81,8.78-33.73,2.49-13.36-7.05-24.78-15.73-28.28-31.42-2.41-10.79,.51-20.8,5.72-30.25,1.46-2.64,3.67-4.85,4.43-7.89h-.01Z"/>
  <path class="cls-45" d="M105.34,988.15c-2.44-2.22-2.19-3.75,.68-5.68,20.76-13.92,41.41-27.99,62.08-42.05,1.96-1.33,4.29-2.52,5.17,.41,.82,2.75,5.99,5.41,.71,8.89-13.41,8.84-26.71,17.82-40.11,26.79,1.01,1.89,2.6,.97,3.81,.98,15.9,.22,31.8,.28,47.7,.55,2.26,.04,5.1-1.31,6.71,1.74,1.81,3.43-1.51,4.8-2.92,6.67-10.3,13.68-20.8,27.2-31.27,40.81,1.24,1.36,2.35,.48,3.4,.14,14.07-4.61,28.23-8.96,42.15-13.98,6.19-2.24,5.89,2.78,7.33,5.53,1.9,3.64-1.56,4.01-3.8,4.74-23.26,7.51-46.52,15.01-69.81,22.4-1.4,.44-3.09,2.35-4.67-.11-1.38-2.16,.25-3.29,1.29-4.64,11.11-14.43,22.25-28.84,33.35-43.28,.51-.66,.76-1.52,1.14-2.29,2.03-4.28,.56-6.42-4.4-6.43-17.49,0-34.97,.02-52.46-.03-2.06,0-4.33,.68-6.07-1.16h-.01Z"/>
  <path class="cls-45" d="M1255.18,1069.96c.58-2.57-1.09-3.72-1.98-5.11-8.78-13.65-17.66-27.24-26.45-40.88-.88-1.36-2.57-2.52-1.35-4.72,1.33-2.4,3.27-1.56,5.15-1.42,17.97,1.29,35.95,2.57,53.97,3.85,.23-2.09-1.52-2.4-2.49-3.19-11.71-9.36-23.31-18.88-35.29-27.87-5.08-3.81-.61-6.1,.68-8.65,1.93-3.82,4.08-.97,5.89,.49,18.93,15.19,37.85,30.39,56.72,45.67,1.24,1.01,3.77,1.57,3.05,3.8-.91,2.83-3.52,1.75-5.53,1.61-18.69-1.35-37.38-2.75-56.08-4.13-2.84-.21-5.68-.37-8.48-.56-.73,1.93,.72,2.83,1.44,3.93,11.19,17.19,22.44,34.35,33.59,51.56,.95,1.46,3.23,2.88,1.35,5.1-1.91,2.26-3.67,.06-5.23-.58-22.27-9.13-44.49-18.36-66.69-27.67-1.96-.82-5.84-.99-3.65-4.78,1.69-2.93,2.08-7.71,8.21-4.88,14.15,6.53,28.66,12.29,43.17,18.43h0Z"/>
  <path class="cls-45" d="M1363.02,541.18c-.12,24.07-19.65,43.13-44.06,42.99-23.64-.14-42.86-20.04-42.87-44.4,0-23.86,19.92-43.49,43.91-43.26,24.31,.24,43.14,19.79,43.01,44.67h.01Z"/>
  <path class="cls-45" d="M1234.06,406.26c6.93-12.82,17.21-21.32,31.81-23.68,23.58-3.81,45.15,11.98,50.63,36.66,1.78,8,1.62,15.95-.18,23.88-.54,2.37-.54,6.23-4.72,4.36-2.89-1.29-8.63-.01-6.53-6.8,2.38-7.68,1.88-15.58-.54-23.22-5.62-17.75-24.8-28.11-41.55-22.57-16.93,5.59-25.82,24.94-19.7,42.85,5.07,14.82,16.81,23.29,30.35,22.17,3.98-.33,5-1.28,2.73-5.03-2.95-4.87-5.21-10.16-8.11-15.07-1.55-2.62-.92-3.92,1.63-4.7,2.52-.77,5.2-4.95,7.68-.52,5.05,9.02,9.7,18.26,14.5,27.42,1.73,3.31-1.04,3.97-3.05,4.93-18.72,8.96-38.23,3.58-49.73-13.76-1.86-2.81-3.43-5.81-5.13-8.72-3.55-2.58-3.59-6.64-4.38-10.38,.18-2.03-.41-3.93-.99-5.83-.21-7.8,.81-15.29,5.28-21.96v-.03Z"/>
  <path class="cls-45" d="M52.86,761.94c-3.47-2.83-2.46-6.86-2.51-10.44-.03-2.29,2.51-1.49,3.87-1.62,17.4-1.7,34.82-3.27,52.23-4.88,6.93-.64,13.86-1.29,20.78-1.98,2.19-.22,4.41-.52,5.51,1.98,1.05,2.36-.9,3.58-2.21,4.96-14.84,15.68-29.71,31.35-44.56,47.02-1.19,1.26-2.34,2.57-4.34,4.78,6.82-.6,12.53-1.09,18.24-1.6,11.02-.99,22.05-1.86,33.05-3.04,6-.64,4.78,3.68,5.38,6.97,.62,3.44-.13,4.93-4.15,5.26-24.01,1.98-47.98,4.31-71.97,6.48-2.22,.2-4.93,1.13-6.2-1.62-1.29-2.78,1.33-4.15,2.84-5.75,8.94-9.48,17.96-18.88,26.9-28.36,1.17-1.25,2.89-2.13,3.2-4.08,1.51-4.66,5.76-7,8.91-10.21,2.25-2.28,4.55-4.44,6.06-7.25-14.43,.85-28.88,3.04-43.46,3.43-2.5,.07-5.1,2.35-7.59-.05h.02Z"/>
  <path class="cls-45" d="M994.05,133.39c.04,25.25-13.01,43.53-30.85,47.98-7.42,1.85-14.62,.66-21.55-1.8-9.4-3.33-18.57-7.31-27.92-10.77-2.9-1.07-2.71-2.39-1.76-4.78,9.14-23.02,18.17-46.08,27.24-69.13,.94-2.4,1.74-4.76,5.32-3.27,10.84,4.53,22.13,8.12,32.1,14.52,11.53,7.41,17.28,18.13,17.42,27.24h0Z"/>
  <path class="cls-45" d="M1331.45,836.34c-11.47,5.93-22.18,11.47-32.9,17.01-1.27,.65-2.48,1.44-3.81,1.94-1.89,.72-3.18-.33-3.71-2-1.05-3.27,2.37-10.37,5.65-12.08,11.24-5.83,22.5-11.64,33.72-17.52,1.3-.68,3.2-.82,3.59-3.49-10.09-1.89-20.18-3.68-30.21-5.72-2.28-.46-6.19,.72-5.06-4.47,1.69-7.75,1.7-8.15,7.47-7.08,23.87,4.4,47.72,8.93,71.61,13.23,3.52,.63,4.19,1.8,3.39,5.23-1.94,8.34-3.09,16.86-5.11,25.17-3.39,13.87-13.12,21.06-25.31,19.26-13.18-1.95-20.21-11.4-19.47-26.15,.04-.71,.07-1.42,.16-3.32h0Z"/>
  <path class="cls-45" d="M1332.43,916.79c-10.25-3.69-19.61-7.06-28.97-10.43-6.88-2.47-13.72-5.06-20.66-7.36-2.91-.96-4.37-2.16-2.53-5.18,1.61-2.64,.75-8.06,6.6-5.99,5.55,1.97,11.07,4.01,16.6,6,17.45,6.28,34.92,12.5,52.33,18.88,1.61,.59,4.46,.2,4.44,2.87-.03,2.74-2.48,3.52-4.71,4.39-20.59,8.05-41.16,16.16-61.72,24.28-1.4,.55-3.09,.65-4.43,2.53,13.55,4.9,26.87,9.72,40.19,14.53,2.35,.85,4.65,2,7.08,2.42,5.87,1.01,5.64,4.01,3.68,8.52-1.36,3.15-2.84,4.07-6.08,2.89-23.46-8.52-46.94-17.01-70.46-25.37-4.14-1.47-2.57-3.42-.76-5.3,.79-.82,2.24-1.02,3.4-1.49,21.67-8.61,43.34-17.21,65.99-26.21v.02Z"/>
  <path class="cls-45" d="M102.66,537.16c17.3,5.86,33.29,11.42,49.39,16.64,3.41,1.1,4.4,2.37,2.74,5.54-1.45,2.79-.67,7.73-6.62,5.69-23.44-8.02-46.94-15.84-70.4-23.77-1.24-.42-3.19-.38-3.21-2.13-.03-1.82,1-3.3,2.91-4.07,4.63-1.85,9.23-3.79,13.84-5.71,17.73-7.39,35.45-14.79,54.43-22.72-11.99-4.07-22.78-7.75-33.59-11.4-5.57-1.88-11.09-3.97-16.76-5.5-3.9-1.05-4.06-2.84-2.6-6.04,1.37-2.98,1.3-6.77,6.68-4.83,13.41,4.83,26.99,9.17,40.51,13.71,9.46,3.18,18.94,6.29,28.36,9.6,1.61,.57,4.37,.15,4.38,2.9,0,2.52-2.06,3.39-4.15,4.26-20.23,8.43-40.43,16.94-60.64,25.44-1.41,.59-2.78,1.26-5.26,2.39h-.01Z"/>
  <path class="cls-45" d="M1316.39,754.18c-.29,4.44-.78,8.88-.84,13.32-.09,6.03-4.38,4.12-7.67,4.45-3.59,.36-4.44-1.09-4.26-4.55,.7-13.01,1.21-26.04,1.55-39.07,.11-4.34,1.66-5.93,6.14-5.72,24.43,1.17,48.88,2.15,73.32,3.04,3.02,.11,3.97,.9,3.81,3.99-.72,13.55-1.38,27.1-1.71,40.67-.16,6.8-4.82,4.41-8.35,4.83-4.57,.54-3.7-2.46-3.59-5.09,.4-9.45,.56-18.93,1.29-28.35,.3-3.78-.92-4.57-4.3-4.49-3.92,.09-7.88-.08-11.76-.6-3.93-.53-4.78,1.06-4.83,4.67-.1,8.74-.73,17.48-.92,26.23-.09,3.86-.55,6.41-5.54,6.32-4.75-.08-7.62-.84-6.33-6.38,.07-.32-.1-.7-.16-1.05-1.59-2.28-1.04-4.77-.61-7.21,1.04-5.83,.49-11.71,.7-17.57,.1-2.89-1.07-3.84-3.91-4.43-5.68-1.17-11.35-.6-17.02-.83-2.74-.11-3.87,1.1-3.78,3.81,.09,3.02,.08,6.05,0,9.07-.05,1.71,.48,3.62-1.24,4.94h.01Z"/>
  <path class="cls-45" d="M159.19,914.21c-12.09-2.15-24.56-4.34-37.02-6.61-14.74-2.68-29.47-5.43-44.21-8.1-1.94-.35-3.72-.32-4.47-2.87-.74-2.51,1.06-3.2,2.3-4.25,20.81-17.69,41.63-35.35,62.49-52.98,3.62-3.06,4.73-2.55,6.35,1.86,1.58,4.3,1.68,7.92-2.95,10.35-.46,.24-.83,.67-1.22,1.04-5.22,4.84-11.14,8.88-15.87,14.26,2.53,9.65,5.04,19.3,7.61,28.93,.6,2.25,2.71,1.99,4.4,2.3,7.19,1.35,14.39,2.62,21.56,4.04,2.88,.57,6.16,8.49,4.63,10.88-.76,1.18-1.84,1.63-3.6,1.15h0Z"/>
  <path class="cls-45" d="M1116.07,211.42c-12.14,14.77-23.21,28.28-34.35,41.72-1,1.21-1.74,3.87-3.96,2.57-2.25-1.32-4.29-3.23-5.94-5.27-.76-.94,.99-2.04,1.72-2.94,15.39-18.78,30.8-37.54,46.25-56.27,.95-1.15,1.63-3.25,3.6-2.59,2.21,.73,1.55,2.97,1.6,4.66,.61,23.21,1.16,46.41,1.78,69.62,.04,1.33-.53,2.79,.82,4.45,7.32-8.89,14.53-17.65,21.74-26.41,4.08-4.96,8.33-9.81,12.15-14.97,2.32-3.13,3.96-2.92,6.69-.48,2.4,2.14,3.76,3.27,1.05,6.5-15.48,18.47-30.67,37.19-46,55.78-.95,1.15-1.6,3.22-3.6,2.62-2.32-.69-1.58-2.94-1.63-4.59-.68-23.2-1.3-46.41-1.93-69.61-.03-1.03,0-2.07,0-4.79h.01Z"/>
  <path class="cls-45" d="M113.82,652.72c-13.99-1.39-29.56-4.61-45.27-6.91-3.36-.49-6.69-1.48-10.04-1.55-4.66-.09-4.5-2.51-3.86-5.91,.66-3.49,.8-6.89,5.98-5.96,9.66,1.73,19.36,3.22,29.05,4.78,7.4,1.19,14.79,2.48,22.21,3.49,10.14,1.38,17.13-3.46,18.95-12.87,1.83-9.44-3.16-17.17-13.34-19.09-17.01-3.19-34.13-5.73-51.2-8.62-2.5-.42-6.27,.21-4.81-4.61,1.04-3.42-.23-8.41,6.41-7.22,17.21,3.07,34.59,5.32,51.7,8.86,25.55,5.27,27.96,29.9,17.19,45.19-5.08,7.21-12.22,10.73-22.98,10.41h0Z"/>
  <path class="cls-45" d="M825.77,126.88c1.43-12.7,5.05-26.16,7.7-39.82,1.16-5.95,2.61-11.85,3.73-17.81,1.22-6.48,5.51-3,8.79-2.88,3.91,.14,3.37,2.5,2.8,5.19-3.64,17.28-7.3,34.55-10.72,51.87-2.01,10.18,2.73,17.23,12.58,19.53,8.63,2.01,16.52-2.8,18.76-12.38,3.91-16.66,7.25-33.46,10.88-50.19,.47-2.15,.14-5.12,3.13-5.59,3.02-.48,5.98,.73,8.83,1.67,1.29,.42,.42,1.83,.21,2.83-3.77,17.62-7.28,35.29-11.36,52.83-2.81,12.05-9.81,20.56-22.75,22.65-16.63,2.69-33-10.77-32.59-27.89h0Z"/>
  <path class="cls-45" d="M1102.46,1195.92c12.34,14.51,23.69,28,35.23,41.33,2.31,2.68,3.34,4.19-.16,7-3.2,2.57-4.57,2.3-7.09-.72-15.34-18.35-30.92-36.5-46.35-54.79-.88-1.04-3.13-1.83-1.85-3.84,1.07-1.67,2.81-1.02,4.4-.78,23.99,3.55,47.99,7.07,72.04,10.61,.81-1.9-.91-2.53-1.68-3.45-10.7-12.69-21.32-25.46-32.32-37.89-2.8-3.16-1.22-4.3,.97-6.13,2.24-1.88,3.77-3.86,6.74-.29,15.42,18.52,31.15,36.78,46.71,55.18,.94,1.11,3.01,2.05,2.07,3.9-1.06,2.07-3.18,1.1-4.85,.85-22.42-3.32-44.83-6.69-67.24-10.05-1.75-.26-3.51-.5-6.63-.95v.02Z"/>
  <path class="cls-45" d="M831.32,1377.82c9.93-1.71,19.08-2.94,28.04-4.95,6.79-1.52,5.45,3.57,6.6,6.87,1.54,4.41-1.8,4.06-4.31,4.51-15.46,2.76-30.92,5.51-46.38,8.25-1.68,.3-3.44,1.17-4.7-1.01-1.11-1.91,.31-3.03,1.11-4.3,7.94-12.5,15.95-24.95,23.87-37.47,2.1-3.31,4.12-6.69,5.88-10.19,3.85-7.64,3.37-14.64-1.07-19.51-4.32-4.73-10.92-6.17-17.19-3.76-6.69,2.58-10.42,8.67-10.11,17.19,.09,2.63,.11,4.08-3.2,4.59-7.77,1.19-8.61,.66-8.28-7.38,.47-11.43,7.37-21.41,17.74-25.15,10.82-3.9,20.77-2.63,29.11,5.88,7.59,7.75,9.32,19.37,4.46,30.39-4.78,10.83-11.91,20.29-18.08,30.3-1,1.63-1.99,3.27-3.49,5.72v.02Z"/>
  <path class="cls-45" d="M310.49,246.83c15.2,3.19,29.55,6.2,44.66,9.36-4.54,5-7.9,8.59-14.99,6.62-11.49-3.2-23.33-5.1-35.03-7.52-1.86-.38-4.1-1.4-5.36,.78-1.24,2.13,1.21,3.03,2.22,4.24,6.05,7.27,12.07,14.58,18.44,21.56,2.51,2.75,1.64,4.11-.82,5.7-1.95,1.26-3.22,4.6-6.32,.91-15.96-18.99-32.09-37.84-48.26-56.66-1.76-2.05-1.43-3.11,.48-4.66,6.77-5.53,13.23-11.46,20.19-16.74,10.61-8.05,21.78-7.27,29.77,1.57,8.32,9.2,8.03,20.29-.79,30.34-1.16,1.33-2.4,2.59-4.18,4.5h-.01Z"/>
  <path class="cls-45" d="M1046.7,138.52c.69,.39,1.47,.82,2.23,1.28,11.49,6.86,22.87,13.9,34.52,20.47,3.74,2.11,2.48,3.8,.94,6.2-1.62,2.52-2.5,5.65-6.75,2.94-8.11-5.19-16.54-9.87-24.74-14.92-2.51-1.54-4.06-2.2-5.73,1.16-2.61,5.25-8.65,10.67-7.94,15.18,.74,4.68,9.05,6.4,13.96,9.56,4.35,2.8,8.7,5.67,13.35,7.89,3.83,1.83,2.66,3.74,1.07,6.14-1.62,2.44-2.47,5.73-6.75,3-8.12-5.18-16.59-9.8-24.73-14.95-2.87-1.82-4.09-1.34-5.63,1.49-3.32,6.11-6.84,12.12-10.57,17.99-1.58,2.48-1.05,3.51,1.31,4.87,8.65,4.99,17.1,10.34,25.81,15.22,3.33,1.86,2.58,3.53,.86,5.75-1.65,2.14-1.98,6.25-6.52,3.46-11.56-7.09-23.21-14.02-34.93-20.84-2.54-1.47-2.39-2.6-1.05-4.86,12.57-21.16,25.01-42.4,37.5-63.61,.87-1.48,1.4-3.4,3.79-3.42h0Z"/>
  <path class="cls-45" d="M679.85,1363.58c-22.4-1.4-28.84-20.3-24.86-33.72,4.02-13.55,18.06-21.42,32.15-17.88,13.27,3.33,21.77,16.97,19.01,30.5-1.39,6.81-4.71,12.69-8.87,18.11-8.92,11.61-17.95,23.14-26.82,34.79-1.72,2.27-3.02,3.97-5.63,1.11-2.24-2.45-7.56-3.44-3.57-8.58,6.12-7.88,12.11-15.85,18.58-24.34h0Z"/>
  <path class="cls-45" d="M699.98,138.13c-12.08-.05-23.54-8.04-27.07-17.69-.25-.67-.61-1.18-.23-1.94,2.22-4.39,9.66-4.97,12.43-.94,1.94,2.82,4.06,5.45,7.08,7.17,4.87,2.78,11.37,1.73,15.21-2.42,3.87-4.18,4.01-9.6,.27-14.66-3.11-4.21-7.23-7.37-11.27-10.62-4.03-3.24-8.27-6.27-11.99-9.84-8.62-8.28-9.48-21.18-2.26-29.48,7.57-8.71,21.01-9.77,30.48-2.33,1.67,1.32,3.22,2.84,4.65,4.42,5.22,5.75,4.71,7.97-2.38,11.47-2.51,1.24-3.92-.03-5.41-1.84-2.75-3.34-5.67-6.47-10.49-6.63-3.45-.11-6.38,.8-8.3,3.84s-1.51,6.17,.13,9.16c1.67,3.05,4.43,5.08,7.13,7.14,6.81,5.18,14.13,9.79,19.41,16.71,5.9,7.71,7.63,16.18,3.11,25.06-4.52,8.87-12.19,13.17-20.51,13.43h0Z"/>
  <path class="cls-45" d="M1327.18,653.51c18.52,5.81,36.72,11.52,54.91,17.23,4.16,1.31,7.05,7.47,5.22,11.3-.93,1.95-2.52,2.05-4.5,1.43-26.19-8.22-52.41-16.37-78.61-24.55-1.39-.43-2.6-.88-2.79-2.73-.2-1.93,.58-2.88,2.17-3.79,23.87-13.58,47.7-27.22,71.55-40.82,3.01-1.72,4.43-.57,5.2,2.68,1.19,5.04,.52,8.2-4.86,11.02-14.99,7.86-29.52,16.62-44.2,25.06-1.33,.77-3.03,1.1-4.08,3.17h-.01Z"/>
  <path class="cls-45" d="M1242.73,1138.41c-.49,.63-1.01,1.35-1.58,2.02-8.53,10.09-17.23,20.05-25.53,30.32-2.95,3.65-4.47,1.37-6.79-.36-2.5-1.86-3.04-3.11-.67-5.76,6.56-7.3,12.62-15.05,19.18-22.36,2.43-2.71,2.12-4.15-.63-6.13-5.03-3.62-9-8.58-14.49-11.66-3.96,4.58-7.94,9.15-11.89,13.75-3.03,3.52-6.25,6.91-8.94,10.67-2.35,3.29-3.98,2.67-6.73,.42-2.81-2.3-3.25-3.67-.63-6.56,6.47-7.14,12.46-14.72,18.81-21.97,1.9-2.17,2.23-3.39-.29-5.4-5.72-4.56-11.33-9.3-16.65-14.32-2.63-2.48-3.78-1.64-5.69,.7-6.09,7.48-12.57,14.63-18.55,22.19-2.45,3.1-4.04,2.35-6.27,.14-1.84-1.82-4.35-2.79-1.34-6.16,8.68-9.72,17-19.77,25.31-29.81,1.9-2.29,3.11-2.59,5.5-.52,18.49,16.03,37.1,31.91,55.65,47.87,.88,.76,2.19,1.28,2.21,2.92h0Z"/>
  <path class="cls-45" d="M292.45,313.81c-.87,1.15-1.44,2.01-2.12,2.79-8.54,9.85-17.17,19.62-25.58,29.58-2.15,2.55-3.44,2.53-5.91,.33-18.14-16.15-36.39-32.18-54.7-48.13-2.21-1.92-2.59-3.02-.49-5.38,8.8-9.86,17.49-19.82,25.96-29.96,2.48-2.97,3.93-1.78,5.88,.19,1.76,1.77,4.5,2.73,1.34,6.08-6.73,7.14-12.8,14.91-19.47,22.1-2.68,2.89-2.28,4.37,.6,6.58,3.82,2.92,7.51,6.09,10.84,9.55,2.65,2.74,4.04,1.93,6.13-.58,6.05-7.27,12.52-14.2,18.47-21.56,2.58-3.2,4.14-2.46,6.73-.18,2.48,2.17,3.16,3.45,.57,6.24-6.56,7.06-12.6,14.6-19.08,21.74-2.13,2.34-2.5,3.64,.21,5.84,5.68,4.61,11.18,9.47,16.52,14.47,2.26,2.12,3.45,1.94,5.39-.38,6.29-7.54,12.79-14.91,19.29-22.27,.92-1.04,1.63-3.36,3.69-1.94,2.02,1.38,3.76,3.18,5.74,4.9h-.01Z"/>
  <path class="cls-45" d="M423.45,1244.35c-.39,2.53,1.39,6.13-3.75,5.75-3.8-.28-7.27,.58-7.08-5.52,.3-9.27-3.36-14.38-10.06-16.31-8.35-2.4-15.69,3.13-15.46,11.81,.16,6.15,2.56,11.8,4.46,17.55,1.45,4.39,3.19,8.71,4.36,13.17,2.88,10.94-2.53,21.67-12.5,25.24-9.68,3.47-21.38-1.6-25.94-11.48-1.25-2.71-2-5.72-2.53-8.68-1.19-6.62-1.05-6.41,5.57-7.17,3.66-.42,4.82,.96,5.02,4.28,.23,3.81,1.21,7.44,4.19,10.12,3.11,2.79,6.66,4.28,10.78,2.34,4.05-1.91,5.39-5.48,5.34-9.69-.03-3.09-1.18-5.93-2.25-8.77-2.26-6-4.85-11.88-6.39-18.13-4.12-16.71,2.47-28.75,17.28-31.57,14.02-2.67,26.63,7.6,28.69,23.38,.16,1.24,.19,2.49,.27,3.66v.02Z"/>
  <path class="cls-45" d="M408.74,209.39c.15,16.35-15.11,28.01-31.22,23.8-2.06-.54-4.07-1.33-6.03-2.18-5.09-2.19-5.63-7.21-1.26-10.69,1.5-1.2,2.66-.28,3.91,.34,2.74,1.35,5.58,2.38,8.62,2.8,6.83,.94,13.32-3.53,14.88-10.23,1.43-6.17-1.89-11.67-8.6-14.05-8.54-3.02-17.6-2.74-26.41-4.01-13.63-1.96-22.45-12.14-20.41-23.91,2.16-12.45,14.94-19.99,28.3-16.69,.87,.21,1.88,.28,2.53,.79,1.67,1.32,6.44-.28,4.56,4.4-1.34,3.32-1.01,9.11-7.68,5.99-2.6-1.21-5.53-1.52-8.41-.89-4.56,1-7.93,3.55-8.61,8.36-.7,4.94,2.11,8.1,6.38,10.03,3.48,1.57,7.27,1.74,11.01,1.96,6.78,.4,13.56,.85,20.15,2.62,11.38,3.05,18.21,11.19,18.31,21.55h-.02Z"/>
  <path class="cls-45" d="M203.92,392.62c-4.31-6.43-8.05-12-11.78-17.59-7.23-10.83-14.47-21.66-21.69-32.49-2.16-3.24-.81-9.53,2.54-11.3,2.75-1.45,3.33,1.23,4.3,2.67,11.07,16.41,22.08,32.87,33.1,49.32,3.77,5.63,7.6,11.23,11.29,16.92,.87,1.34,2.76,2.46,1.42,4.64-1.48,2.42-3.5,1.14-5.27,.85-25.53-4.15-51.06-8.31-76.56-12.64-1.98-.34-6.46,.65-5.11-3.21,1.06-3.01,1.86-8.11,7.63-7.11,13.71,2.37,27.45,4.6,41.18,6.87,5.95,.98,11.91,1.93,18.95,3.07h0Z"/>
  <path class="cls-45" d="M570.45,68.66c2.4-3.99,6.8-3.62,10.4-4.01,2.54-.28,2.66,2.41,1.87,4.84-4.11,12.7-8.02,25.46-12.13,38.17-1.01,3.14-1.29,6.04-.41,9.34,2.6,9.81,4.64,19.76,7.26,29.56,.93,3.46,.13,4.89-3.27,5.32-3.27,.41-6.96,2.98-8.25-2.95-2.14-9.91-4.85-19.71-7.04-29.61-.65-2.97-2-5.16-4.09-7.23-9.4-9.25-18.72-18.58-28.04-27.92-1.31-1.31-3.36-2.37-2.46-4.84,.78-2.13,2.84-1.86,4.48-2.26,2.06-.5,4.18-.8,6.27-1.19,5.65,3.45,9.76,8.61,14.48,13.09,2.44,2.32,4.93,4.63,7.13,7.18,2.69,3.1,4.03,1.88,4.82-1.26,2.03-8.06,4.44-15.99,7.23-23.82,.36-1.02,.47-2.09,1.74-2.38v-.03Z"/>
  <path class="cls-45" d="M798.35,70.52c-.36-.04-.54-.06-.71-.07-4.17-.11-9.4-3.17-12.13-.23-2.26,2.43-1.39,7.78-1.87,11.84-2.08,17.72-4.24,35.43-6.15,53.17-.44,4.08-2.19,5.27-5.98,4.45-3.12-.68-7.07,.79-6.2-5.51,2.83-20.5,4.85-41.1,7.44-61.64,.48-3.84-.1-5.68-4.3-5.56-2.12,.06-4.24-.5-6.37-.71-6.01-.59-8.31-5.24-5.09-10.35,.86-1.37,2.12-1.75,3.68-1.57,13.65,1.58,27.3,3.14,40.95,4.73,.68,.08,1.91,.46,1.9,.65-.16,2.99-.18,6.05-.88,8.92-.48,1.96-2.55,2.25-4.3,1.88h.01Z"/>
  <path class="cls-45" d="M468.36,110.34c-3.89,1.51-7.64,2.74-11.17,4.41-5.36,2.53-5.19-2.13-6.75-4.78-1.86-3.16-.81-4.46,2.45-5.68,11.69-4.35,23.36-8.8,34.84-13.68,5.41-2.3,5.74,1.45,7.38,4.6,1.96,3.76,.08,4.68-3,5.88-3.91,1.52-9.82,1.77-11.05,5.3-1.04,2.97,2.24,7.49,3.71,11.29,6.48,16.8,12.85,33.64,19.59,50.33,1.46,3.63,1.28,5.27-2.65,6.45-3.53,1.06-6.39,2.92-8.38-2.42-7.29-19.54-14.95-38.94-22.52-58.38-.52-1.33-.33-3.4-2.44-3.33h-.01Z"/>
  <path class="cls-45" d="M1100.38,1271.29c-.04,1.6-1.16,1.93-2.02,2.47-11.14,7.06-22.31,14.07-33.42,21.17-4.6,2.94-4.74-1.79-6.48-3.67-1.98-2.13-1.96-4.02,1.06-5.23,.32-.13,.6-.38,.89-.59,3.47-2.45,9.28-3.76,9.98-7.29,.58-2.97-3.64-6.92-5.8-10.39-9.5-15.29-18.89-30.64-28.63-45.77-2.28-3.54-1.84-5.01,1.63-7.17,3.66-2.27,5.5-2.22,7.89,1.73,10.61,17.52,21.68,34.78,32.31,52.29,2.13,3.51,3.71,4.04,6.78,1.4,1.87-1.61,4.11-2.84,6.3-4.01,1.58-.84,3.21-3.25,5.12-1.32,1.84,1.85,3.02,4.35,4.37,6.39h.02Z"/>
  <path class="cls-45" d="M763.53,1357.16c.63,11.77,1.09,23.56,1.98,35.31,.3,4.01-.71,5.41-4.79,5.26-3.7-.14-7.04,.66-7.26-4.99-.81-20.53-2.11-41.03-2.94-61.56-.16-3.92-.93-5.51-5.15-4.79-2.54,.43-5.98,1.76-7.15-2.32-.57-1.98,4.6-9.19,6.66-9.36,4.27-.34,8.56-.51,12.84-.65,3.59-.12,3.77,2.44,3.9,5.09,.63,12.67,1.31,25.33,1.97,38h-.06Z"/>
  <path class="cls-45" d="M602.69,1301.46c1.26,.38,1.6,.5,1.95,.59,4.96,1.2,12.1,.15,14.31,3.88,1.92,3.25-1.09,9.47-2.03,14.35-3.97,20.5-8.16,40.97-11.85,61.52-1.02,5.71-4.23,4.36-7.81,3.98-3.91-.42-4.76-1.92-3.93-5.91,4.23-20.45,7.98-40.99,12.16-61.45,.74-3.63-.36-4.83-3.64-5.14-1.41-.14-2.85-.4-4.2-.83-2.61-.83-3.64-2.57-1.56-4.74,2.21-2.3,3.68-5.67,6.59-6.24h.01Z"/>
  <path class="cls-45" d="M264.19,1109.72c-.85-1.13-1.56-2.12-2.33-3.07-4.86-5.94-9.54-12.05-14.68-17.74-2.84-3.14-.45-4.16,1.41-5.66,1.82-1.46,3.24-3.93,5.91-.53,7.06,8.98,14.41,17.73,21.76,26.48,1.41,1.68,1.07,2.52-.44,3.77-19.23,15.96-38.47,31.92-57.59,48.01-3.66,3.08-4.39-.51-6.1-2.1-2.14-1.98-2.76-3.47,.12-5.83,16.31-13.33,32.43-26.89,48.61-40.39,1.07-.9,2.09-1.86,3.33-2.96v.02Z"/>
  <path class="cls-45" d="M1159.82,331.55c-2.6-1.4-4.24-3.62-5.69-5.74-1.27-1.86,1.25-2.61,2.27-3.54,15.41-14.1,30.81-28.23,46.44-42.08,3.09-2.74,3.23-4.36,.21-6.93-1.89-1.6-3.38-3.67-5.05-5.53-3.39-3.79-2.67-6.85,1.93-9.08,1.66-.81,2.27,.21,3.08,1.11,8.82,9.84,17.59,19.72,26.45,29.52,2.69,2.98-.69,3.6-1.86,4.76-1.22,1.2-2.43,4.24-4.97,1.24-2.42-2.86-5.22-5.43-7.43-8.44-2.1-2.86-3.43-2.3-5.75-.16-15.37,14.15-30.89,28.14-46.37,42.16-1.04,.94-2.16,1.8-3.27,2.71h.01Z"/>
  <path class="cls-45" d="M510.5,1296.88c10.13,.11,18.24,8.42,18.1,18.59-.13,10.22-8.34,18.32-18.46,18.23-10.13-.1-18.24-8.41-18.11-18.57,.13-10.2,8.37-18.34,18.47-18.24h0Z"/>
  <path class="cls-45" d="M956.54,1309.31c.06,10.08-8.22,18.47-18.28,18.53-9.88,.06-18.26-8.4-18.32-18.52-.07-10.01,8.29-18.46,18.3-18.51,9.98-.04,18.24,8.31,18.3,18.5h0Z"/>
  <path class="cls-45" d="M314.87,1160.88c-1.15-.83-2.27-1.46-3.17-2.31-5.46-5.14-10.71-10.53-16.38-15.43-2.79-2.42-2.03-3.79,.12-5.83,1.84-1.75,2.88-3.71,5.76-.79,7.64,7.76,15.63,15.18,23.63,22.59,1.93,1.79,1.8,2.78,.07,4.6-16.82,17.77-33.63,35.57-50.24,53.54-2.64,2.85-3.83,1.47-5.82-.37-2.18-2.02-3.46-3.23-.63-6.18,14.62-15.18,28.96-30.64,43.39-46.01,.96-1.02,1.83-2.12,3.27-3.81h0Z"/>
  <path class="cls-45" d="M191.73,462.05c.27,5.86-5.16,9.58-9.67,7.41-21.53-10.37-43-20.86-64.64-31.01-3.84-1.8-3.98-3.31-2.14-6.69,1.79-3.29,2.79-5.67,7.45-3.37,21.9,10.84,43.98,21.3,65.97,31.95,1.16,.56,2.93,.58,3.02,1.71h0Z"/>
  <path class="cls-45" d="M454.58,195.11c-2.41,1.3-4.79,2.75-7.3,3.9-2.54,1.17-3.48-.84-4.37-2.63-5.88-11.81-11.74-23.62-17.61-35.43-5.24-10.53-10.38-21.12-15.79-31.56-1.37-2.64-.96-4.06,1.71-4.69,2.65-.62,5.57-5.36,8.06-.43,11.58,22.9,22.92,45.92,34.35,68.9,.23,.47,.47,.94,.96,1.94h0Z"/>
  <path class="cls-45" d="M229.49,1048.22c2.98,1.57,4.1,4.53,5.6,7.02,1.27,2.12-1.32,2.53-2.41,3.27-20.18,13.76-40.48,27.33-60.58,41.2-3.9,2.69-5.07,.48-6.96-2.17s-2.76-4.2,.82-6.56c20.22-13.38,40.23-27.07,60.31-40.65,1.02-.69,2.06-1.35,3.23-2.11h0Z"/>
  <path class="cls-45" d="M312.37,1254.29c-1.7-1.36-4.17-2.71-5.71-4.76-1.31-1.74,1.11-3.06,2.09-4.34,14.38-18.86,28.84-37.66,43.28-56.47,2.8-3.65,8.25-2.88,10.29,1.37,.64,1.33-.3,1.96-.91,2.75-15.3,19.96-30.61,39.9-45.92,59.85-.65,.85-1.27,1.76-3.12,1.61h0Z"/>
  <path class="cls-43" d="M672.27,1138.35c-1.61-1.67-3.69-.99-5.57-1-19.59-.06-39.18-.05-58.77-.05-24.16,0-48.32,.03-72.49-.06-3.52-.01-7.04-.61-10.56-.98-3.36-.35-5.04,1.12-5.03,4.51-3.8-2.95-2.08-4.76,1.4-5.76,1.66-.48,3.54-.23,5.31-.22,25.48,.09,50.95,.19,76.44,.29,25.63,.06,51.26-.27,76.88,.3,17.6,.39,35.19,.76,52.79,.81,1.36,0,2.91-.42,3.84,1.13-1.33,1.71-3.14,2.11-5.21,2.12-18.35,0-36.69,0-55.04-.02-1.41,0-2.89,.12-4-1.06h.01Z"/>
  <path class="cls-2" d="M479.2,420.21c-6.78-4.48-12.82-9.96-19.83-14.16-13.06-7.83-27.17-12.34-42.24-13.52-35.01-2.73-64.18,9.41-87.75,35.28-.41,.42-.78,.37-1.12-.08,9.76-12.35,22-21.38,36.24-28.05,12.09-5.66,24.78-8.52,37.93-9.3,10.14-.6,20.15,.71,30.13,3.01,13.78,3.17,25.83,9.55,37.17,17.65,3.62,2.59,7.11,5.3,9.47,9.18h0Z"/>
  <path class="cls-7" d="M510.35,510.14c.09-5.66-.07-11.34,.31-16.98,.58-8.43-1.38-16.52-2.77-24.7,2.31,.71,.6,3.29,2.43,4.74,0-5.59,.81-11.01-.15-16.11-3.39-18.17-1.31-36.46-2.02-54.68-.16-4.05-.67-8.09-.99-12.14-.07-.93,.28-1.73,1.08-2.29,1.31,1.98-.37,4.44,1.02,6.41h0c2.65,6.23,2.6,12.93,2.62,19.42,.06,18.19,.48,36.35,2.23,54.47,.6,6.2,2.79,12.2,2.21,18.55-.21,2.29,.13,4.66-1.12,6.77-1.7,1.5-2.2-.07-2.47-1.17-.44-1.81-.36-3.72-.92-5.53-.2-.69-1.12,.35-.54-.07,.18-.13,.32-.02,.4,.33,1.63,6.62,1.35,13.35,1.01,20.07-.07,1.34-.32,2.95-2.35,2.9h.02Z"/>
  <path class="cls-31" d="M861.93,930.08c12.44-2.06,24.54-.24,36.5,3.15l1.89,2.46c-8.55-2.22-16.99-5.49-25.93-5.11-27.31,1.17-49,12.24-61.78,37.33-2.74,5.38-4.81,11.4-4.35,17.9,.32,4.6-.41,9.17-3.11,13.17,.3-17.8,4.03-34.55,16.69-47.88,10.88-11.44,24.41-18.41,40.08-21.02h0Z"/>
  <path class="cls-42" d="M1316.39,754.18c.09-5.32,.25-10.64,.24-15.96,0-2.12,.39-3.28,2.94-3.13,7.09,.42,14.19,.71,21.3,.86,2.5,.05,2.87,1.16,2.74,3.31-.52,9.04-.92,18.08-1.36,27.12-2.1,1.7-.06,4.5-1.71,6.51-1.57-9.73,1.01-19.17,.79-28.69-.09-3.68-.44-5.55-4.98-6.06-4.62-.53-9.2-.38-13.79-.73-3.19-.24-3.8,1.36-3.88,4.18-.26,9.32-.77,18.64-2.28,27.94v-15.35h-.01Z"/>
  <path class="cls-11" d="M844.9,1137.23c-1.55,1.81-3.65,1.11-5.53,1.1-31.93-.05-63.85-.14-95.78-.29-1.25,0-1.51,.5-1.69,1.44-1.26,.58-1.55-.5-2.06-1.21,.26-2.89,2.49-2,4.08-2,18.38,0,36.79-.44,55.14,.29,12.84,.51,25.67,.33,38.5,.56,2.03,.04,4.4,.77,5.67-1.78,.55,.63,1.1,1.26,1.65,1.89h.02Z"/>
  <path class="cls-23" d="M52.86,761.94c17.9-1.7,35.79-3.41,55.1-5.24-6.87,6.97-12.96,13.14-19.04,19.31-1.97-2.36,.66-3.1,1.66-4.15,3.51-3.7,7.22-7.21,10.59-11.52-6.09,1.63-12.29-.29-18.15,1.81-.65,.24-1.34,.87-1.92,.77-8.72-1.47-17.24,.71-25.85,1.23-1.23,.07-3.41,.45-2.4-2.22h.01Z"/>
  <path class="cls-42" d="M105.34,988.15h68.45c-.83,3.9-3.99,5.15-5.52,7.62-2.26-2.3,1.81-2.99,1.13-5.35h-31.15c-9.78,0-19.56,.06-29.33-.07-1.35-.02-4.24,1.47-3.58-2.2Z"/>
  <path class="cls-42" d="M570.45,68.66c-3.3,10.57-6.6,21.15-10.04,32.17-8.58-8.45-16.97-16.71-25.35-24.97,2.39-1.86,3.13,.75,4.16,1.76,6.48,6.35,12.83,12.84,19.64,19.7,2.5-3.28,2.49-6.97,3.65-10.14,2.2-6,3.86-12.19,5.83-18.27,.37-1.13,.99-3.77,2.11-.25h0Z"/>
  <path class="cls-6" d="M509.27,394.4c-1.86-1.89-.68-4.27-1.02-6.41,3.6-5.22,9.52-3.76,14.18-3.87,11.06-.27,21.88-3.04,32.95-2.61v1.09c-13.31,3.29-27.1,1.52-40.5,3.9-4.6,.82-6.12,3.58-5.61,7.9h0Z"/>
  <path class="cls-23" d="M1234.06,406.26c-2.77,7.01-4.09,14.31-4.25,21.83,.94,1.88-.15,4.1,.96,5.95,.12,3.79,1.95,7.03,3.38,10.4-.28,.79-.14,2.69-1.53,.63-6.41-9.42-6.35-30.45,.16-39.49,1.2-1.67,1.04,.08,1.28,.68Z"/>
  <path class="cls-13" d="M749.5,1203.88c-1.98,3.29-5.02,5.63-7.62,8.36-1.33,1.01-2.83,1.39-4.5,1.38-15.85-.1-31.7-.15-47.55-.29-.79,0-1.58-.6-2.37-.92,14.45,0,28.91-.35,43.35,.15,6.31,.22,11.05-1.34,14.79-6.31,1.06-1.41,2.42-2.61,3.65-3.91,.63,.42,.71,.94,.24,1.53h.01Z"/>
  <path class="cls-44" d="M340.92,682.78c4.62,3.37,6.21,8.78,9.03,13.36,4.64,7.55,9.24,15.11,13.87,22.66,.91,1.48,2.38,2.74,1.71,4.78-6.55-8.62-11.62-18.17-17.15-27.42-2.62-4.38-5.8-8.46-7.46-13.38Z"/>
  <path class="cls-24" d="M312,457.62c-2.16,4.39-2.94,9.21-4.38,13.82-1.06,10.93-3.3,21.76-2.51,32.83-.37,.65-.9,.82-1.58,.53-1.29-15.34,.66-30.3,5.47-44.88,.65-1.97,1.94-3.73,2.94-5.58,.84,1.08,.8,2.18,.06,3.29h0Z"/>
  <path class="cls-3" d="M312,457.62c-.02-1.1-.04-2.19-.06-3.29,3.8-9.88,9.82-18.39,16.32-26.62,.37,.03,.75,.06,1.12,.08-4.9,8.28-11.44,15.56-14.95,24.69-.68,1.76-1.61,3.43-2.42,5.13h0Z"/>
  <path class="cls-32" d="M315.23,539.1c5.15,8.97,11.3,17.27,17.1,25.8-7.72-6.01-11.9-14.69-17.03-22.64-.86-1.04-.78-2.09-.06-3.16h-.01Z"/>
  <path class="cls-35" d="M315.23,539.1c.02,1.05,.04,2.11,.06,3.16-4.69-7.88-8.05-16.23-8.9-25.45,.19-.18,.38-.35,.58-.53,.21,.16,.42,.31,.63,.47,1.45,7.82,3.96,15.29,7.63,22.35h0Z"/>
  <path class="cls-35" d="M303.53,504.8c.39-.01,.78-.03,1.16-.04,3.19,3.4,2.26,7.59,2.22,11.61-.17,.15-.34,.29-.52,.44-1.52-3.87-3.37-7.66-2.87-12.01h0Z"/>
  <path class="cls-16" d="M1143.91,691.3c1.78-.73,3.56-1.47,5.34-2.2-.99,2.35-3.08,2.93-5.31,3.28,0-.36-.02-.72-.02-1.08h0Z"/>
  <path class="cls-6" d="M514.59,494.1c1-10.91-2.31-21.44-2.82-32.18-.52-10.98-2.08-21.93-1.39-32.95,.72-11.56-1.2-23.03-1.11-34.57,17.77,12.65,35.79,24.96,53.24,38.04,17.88,13.41,35.95,26.62,52.66,41.54,18.54,16.56,37.38,32.72,57.08,47.94,14.59,11.27,28.37,23.61,43.39,34.38,5.3,3.8,10.33,4.05,16.33,1.39,22.16-9.81,43.6-21.22,65.91-30.62,17.76-7.48,35-16.06,52.64-23.76,15.47-6.76,31.02-13.47,45.94-21.48,.88-.47,2.05-.41,3.09-.6-8.98,6.51-19.43,10.17-29.32,14.85-18.94,8.96-38.08,17.5-57.14,26.18-17.96,8.18-35.96,16.28-53.91,24.5-8.7,3.98-16.97,10.11-26.07,11.76-12.57,2.27-12.1,11.55-14.36,19.81-1.49,5.46-2.52,11.07-3.53,16.65-4.19,23.2-6.36,46.7-10.51,69.93-3.58,20.05-6.71,40.26-8.48,60.53-1.06,12.18-2.01,24.44-2.48,36.69-.88,22.95-1.86,45.9-2.53,68.86-.83,28.48-1.48,56.98-.28,85.37,.74,17.48,1.83,35.09,3.87,52.55-9.19,3.3-19.05,4.01-28.2,7.65-11.26,4.48-21.78,10.31-32.24,16.32-1.56,.9-2.95,2.02-4.9,1.59-6.82-16.7-13.15-33.6-19.66-50.41-7.72-19.94-15.3-40-20.53-60.86-3.79-15.13-8.82-29.95-12.96-45-5.29-19.18-10.33-38.43-14.03-58.01-4.45-23.56-10.28-46.84-15.15-70.32-3.42-16.51-7.09-33.02-10.23-49.58-4.61-24.26-9.66-48.45-11.8-73.18-1.84-21.27-5.34-42.39-8.06-63.58-.21-1.61-.85-2.66-2.33-3.24,0-.27,0-.55-.01-.82,.07-.27,.15-.53,.22-.8,1.19-3.96-.17-7.76-.91-11.55-.59-3-.79-5.97-.8-8.99,.09-1.48,.17-2.97,1.39-4.06l-.02,.03Z"/>
  <path class="cls-38" d="M766.55,979.7c1.35,.75,2.59,1.61,3.26,3.08-10.46-3.45-20.4-8.14-29.99-13.47-5.11-2.84-5.37-16.99-.81-20.83,4.54-3.81,5.11-9.07,1.86-17.03,4.85,4.19,4.66,13-.38,17.79s-3.24,16.75,2.95,20.11c7.45,4.03,15.02,7.76,23.11,10.36h0Z"/>
  <path class="cls-14" d="M672.27,1138.35c18.63,0,37.25-.03,55.87,.03,2.86,0,5.64-.22,8.37-1.06,.13,.23,.18,.49,.16,.75,1.21,3.15,4.25,4.71,6.24,7.19,1.01,1.26,3.06,2.21,1.54,4.35-.26,.01-.56,.09-.6,.02-5.02-8.91-13.09-9.38-22.25-9.28-37.1,.39-74.22,.17-111.32,.13-1.98,0-4.14,.61-5.89-2.13h67.88Z"/>
  <path class="cls-36" d="M739.85,1138.27c.69,.4,1.37,.81,2.06,1.21,4.97,5.66,9.89,11.34,10.88,19.25-.27,.44-.54,.43-.81,0-2.96-7.2-6.27-14.16-12.46-19.27,.11-.4,.22-.79,.33-1.19Z"/>
  <path class="cls-17" d="M465.3,652.77c2.34,.12,5.06-.89,6.43,2.14-2.52,.41-6.01,3.75-6.43-2.14Z"/>
  <path class="cls-15" d="M306.91,516.37c-.74-3.87-1.48-7.74-2.22-11.61-.62-11.25,.08-22.38,2.94-33.32,.11,4.6,.31,9.16-.83,13.74-1.87,7.52-.97,15.04,.57,22.56,.59,2.9,.19,6,.24,9.01-.25-.09-.48-.21-.69-.38h-.01Z"/>
  <path class="cls-34" d="M751.98,1158.73h.81c-.12,2.97,2.79,4.71,3.08,7.51,1.72,8.21,1.67,16.43,.03,24.65-2.43,4.18-3.02,9.27-6.4,12.99-.08-.51-.16-1.02-.24-1.53-.3-2.74,3.07-4.24,2.39-7.11,1.39-2.71,1.74-5.55,1.76-8.61,.03-5.61-.66-11.25,.74-16.86,.72-2.87-2.13-5.1-2.48-7.9,.1-1.05,.21-2.1,.31-3.15h0Z"/>
  <path class="cls-20" d="M752.59,1190.88c-2.28-6.95-.58-14.08-.85-21.12-.03-.91,1.16,.62,1.87,.79,1.33,6.08,.4,12.23,.51,18.35,.02,.96-.69,1.57-1.53,1.98Z"/>
  <path class="cls-30" d="M752.59,1190.88c2.39-6.67,.62-13.55,1.02-20.33,.68-3.19-3.28-5.34-1.94-8.68,4.53,7.25,4.52,27.13-.02,33.37-.56-1.64,.4-2.96,.94-4.36Z"/>
  <path class="cls-12" d="M755.9,1190.89c-.01-8.22-.02-16.43-.03-24.65,.5-.7,1.01-1.41,1.8-2.52v30.2c-1.48-.33-.3-2.59-1.77-3.04h0Z"/>
  <path class="cls-19" d="M861.98,927.16c8.54-1.71,17.04-1.49,25.52,.48-8.51-.1-17.05,1.98-25.53-.48h.01Z"/>
  <path class="cls-39" d="M514.59,494.1v4.26c-1.25,4.26-.18,8.4,.61,12.56,.57,2.97,1.13,5.94-.44,8.8l-.21,.2c-1.82,.63-3.63,.63-5.45,0-1.99-3.57,.08-6.62,1.24-9.78,2.28-4.68,.66-9.65,1.01-14.47,.24-3.32,.05-6.68,.05-10.53,2.49,2.89,1.24,6.48,3.19,8.97h0Z"/>
  <path class="cls-7" d="M509.1,519.92h5.45s.15,.4,.16,.4c-1.9,.37-3.83,1.01-5.6-.4h0Z"/>
  <path class="cls-40" d="M501.92,942.18c-.53-4.53-3.35-7.76-6.23-10.95-4.32-4.76-8.44-9.69-11.87-15.11-6.84-10.78-6.14-22.28,1.94-33.36,2.62-3.6,5.41-7.09,8.33-10.44,6.02-6.91,11.02-14.29,11.66-25.13,2.14,5.78,2.02,12.9-.21,19.81-1.58,4.91-3.59,9.68-5.49,14.48-2.23,5.64-1.87,10.97,.83,16.48,4.94,10.07,12.67,18.04,19.41,26.75,7.97,10.29,6.46,19.27-4.58,25.96-4.66,2.83-9.22,6.09-15.02,6.3-1.86-2.66-.09-5.28,.07-7.91,.88-2.21,.51-4.63,1.16-6.88h0Z"/>
  <path class="cls-27" d="M501.97,948.47c-.43,2.84-.86,5.67-1.28,8.51-.82,.81-1.76,1.17-2.91,.79-12.18-3.98-22.87-9.96-28.82-22.04-4.37-8.86-2.31-23.44,4.73-30.85-.69,13.54,7.52,21.04,17.06,27.75,3.79,2.66,7.24,5.77,10.01,9.54,1.6,1.87,1.92,3.98,1.21,6.29h0Z"/>
  <path class="cls-1" d="M501.97,948.47c-.4-2.1-.81-4.2-1.21-6.29h1.16c1.45,2.08,1.57,4.18,.05,6.29Z"/>
  <path class="cls-23" d="M1319.04,572.32c-17.21,.08-31.31-14.26-31.45-31.98-.14-17.67,14.59-32.02,32.73-31.89,17.07,.12,31.3,14.54,31.25,31.67-.05,17.98-14.33,32.12-32.53,32.2Z"/>
  <path class="cls-23" d="M1230.77,434.04c-1.8-1.75-.73-3.95-.95-5.95,.88,1.89,.99,3.91,.95,5.95Z"/>
  <path class="cls-23" d="M982.55,139.2c-.37,8.2-3.02,15.86-8.48,22.34-6.27,7.44-14.43,10.32-23.95,8.55-7.91-1.47-15.27-4.79-22.75-7.68-1.85-.72-2.33-1.53-1.51-3.58,6.88-17.19,13.64-34.43,20.37-51.68,.77-1.97,1.63-2.21,3.58-1.39,6.9,2.9,13.87,5.63,20.16,9.77,8.38,5.53,12.54,13.38,12.59,23.68h-.01Z"/>
  <path class="cls-23" d="M1342.65,839.43c.65-3.65,1.67-8.88,2.5-14.14,.35-2.21,1.08-2.96,3.48-2.43,5.55,1.23,11.16,2.22,16.77,3.11,2.27,.36,3.01,1.2,2.48,3.51-1.15,5.02-1.89,10.14-3.2,15.11-1.76,6.68-6.64,10.08-12.4,9.11-6.28-1.05-9.9-5.78-9.63-14.28h0Z"/>
  <path class="cls-9" d="M114.72,874.66c1.93,7.19,3.62,13.48,5.5,20.5-8.09-1.46-15.68-2.84-24.38-4.41,6.56-5.58,12.39-10.55,18.88-16.08h0Z"/>
  <path class="cls-23" d="M311.74,227.45c-.28,3.75-1.92,6.91-4.6,9.41-4.3,4.02-8.36,10.28-13.28,11.11-5.43,.92-8.01-7.05-11.81-11.11-5.96-6.36-5.75-6.55,1.01-12.4,3.37-2.92,6.61-6.04,10.57-8.16,8.29-4.45,18.37,1.79,18.11,11.16h0Z"/>
  <path class="cls-23" d="M694.86,1337.68c-.06,8.11-6.56,14.68-14.53,14.68s-14.61-6.53-14.66-14.54c-.05-8.32,6.7-15.15,14.78-14.96,8.05,.19,14.46,6.79,14.4,14.82h0Z"/>
  <path class="cls-41" d="M521.81,532.28c2.02,5.86,1.31,11.86,0,17.92v-17.92Z"/>
  <path class="cls-7" d="M514.76,519.72c-.4-5.45-.86-10.9-1.15-16.35-.09-1.69-.59-3.59,.99-5.01-.18,4.63,1.04,9.05,1.77,13.56,.42,2.59,2.15,5.89-1.61,7.8Z"/>
  <path class="cls-41" d="M527.94,595.22c-2.46-6.91-1.16-12.38-1.38-17.8,.46-.03,.92-.06,1.38-.09v17.89Z"/>
  <path class="cls-26" d="M525.09,557.6v13.63h-.54v-13.67l.54,.03h0Z"/>
</svg>