<?xml version="1.0" encoding="UTF-8"?>
<svg id="Layer_1" data-name="Layer 1" xmlns="http://www.w3.org/2000/svg" viewBox="0 0 699.43 720">
  <defs>
    <style>
      .cls-1 {
        fill: #aedbcf;
      }

      .cls-2 {
        fill: #9bdcca;
      }

      .cls-3 {
        fill: #aedbce;
      }

      .cls-4 {
        fill: #fcfdfd;
      }

      .cls-5 {
        fill: #64c2a9;
      }

      .cls-6 {
        fill: #fdfefe;
      }

      .cls-7 {
        fill: #aadbce;
      }

      .cls-8 {
        fill: #fdfefd;
      }

      .cls-9 {
        fill: #91dcc8;
      }

      .cls-10 {
        fill: #5dbfa5;
      }

      .cls-11 {
        fill: #6dc5ae;
      }

      .cls-12 {
        fill: #5fc0a7;
      }

      .cls-13 {
        fill: #96dcc9;
      }

      .cls-14 {
        fill: #92cea8;
      }

      .cls-15 {
        fill: #8ed2c0;
      }

      .cls-16 {
        fill: #9cdcca;
      }

      .cls-17 {
        fill: #b3e1d5;
      }

      .cls-18 {
        fill: #5dbfa6;
      }

      .cls-19 {
        fill: #5ec0a6;
      }

      .cls-20 {
        fill: #7dccb7;
      }

      .cls-21 {
        fill: #fdfdfd;
      }

      .cls-22 {
        fill: #a1dbcc;
      }

      .cls-23 {
        fill: #b0dbcf;
      }

      .cls-24 {
        fill: #a0dbcc;
      }

      .cls-25 {
        fill: #99dcca;
      }

      .cls-26 {
        fill: #a0dbcb;
      }

      .cls-27 {
        fill: #addbce;
      }

      .cls-28 {
        fill: #69c3ab;
      }

      .cls-29 {
        fill: #afdbcf;
      }

      .cls-30 {
        fill: #8dd2c0;
      }

      .cls-31 {
        fill: #9edccb;
      }

      .cls-32 {
        fill: #fefefe;
      }
    </style>
  </defs>
  <path class="cls-10" d="M325.17,.75c8.19,1.04,16.27-1.19,24.43-.67,11.95,.76,23.91,.59,35.86,.94,13,.39,26.02,1.2,38.95,2.54,16.76,1.73,33.52,3.43,50.24,5.7,19.84,2.69,39.59,5.81,59.3,9.28,31.87,5.62,63.45,12.49,94.78,20.54,22.05,5.67,44.01,11.68,65.58,19,2.68,.91,3.15,2.24,3.37,4.8,.91,10.68,.07,21.42,.96,32.04,.79,9.45,1.04,18.89,.46,28.24-.78,12.68-.08,25.35-.76,37.99-.59,10.92-1.09,21.84-1.68,32.75-.77,14.23-1.97,28.44-3.37,42.62-1.43,14.41-3,28.82-5.11,43.15-2.41,16.34-4.96,32.67-8.07,48.92-3.88,20.34-8.51,40.49-14.05,60.4-5.29,19-11.77,37.63-19.23,55.93-12.05,29.57-27.7,57.12-45.95,83.22-7.98,11.41-16.63,22.35-25.67,32.99-11.39,13.41-23.27,26.35-36.07,38.39-14.35,13.51-29.16,26.48-44.88,38.45-12.86,9.79-25.91,19.29-39.43,28.1-15.52,10.11-31.49,19.46-47.85,28.18-17.98,9.58-36.46,17.96-55.46,25.24-1.92,.74-3.5,.58-5.12-.04-18.09-7-35.59-15.23-52.64-24.5-18.99-10.31-37.46-21.44-55.21-33.75-14.19-9.84-27.89-20.32-41.33-31.19-18.86-15.25-36.13-32.17-52.75-49.72-14.09-14.88-26.87-30.94-38.82-47.66-14.3-20-27.15-40.82-37.99-62.84-11.88-24.13-20.98-49.34-28.86-75.06-6.97-22.73-12.45-45.8-17.26-69.02-3.21-15.49-5.8-31.13-8-46.83-2.22-15.86-4.26-31.73-5.96-47.65-1.26-11.8-2.36-23.6-3.34-35.42-1.11-13.4-1.63-26.83-2.6-40.23C-.62,124.49,.42,93.36,0,62.25c-.04-3.19,1.87-3.72,3.97-4.37,21.86-6.83,43.87-13.13,66.06-18.85,27.29-7.03,54.81-13.04,82.45-18.37,15.81-3.05,31.73-5.63,47.68-8.02,15.96-2.39,31.96-4.55,47.97-6.42,10.94-1.28,21.97-2.1,32.99-2.92,14.68-1.09,29.35-1.97,44.05-2.55Z"/>
  <path class="cls-32" d="M349.8,18.71c8.19,0,16.39-.14,24.58,.03,17.86,.36,35.65,1.77,53.45,3.2,14.29,1.14,28.53,2.66,42.72,4.52,18.8,2.46,37.55,5.34,56.23,8.66,29.26,5.2,58.31,11.39,87.14,18.53,19.69,4.88,39.39,9.84,58.67,16.25,6.64,2.21,8.07,4.42,8.08,11.58,0,8.62,0,17.23,0,25.85,0,16.32,.56,32.67-.15,48.96-.79,17.96-1.58,35.94-3.02,53.89-1.13,14-2.26,28.02-3.79,41.97-1.69,15.48-3.92,30.91-6.38,46.31-3.66,22.95-8.09,45.74-13.83,68.24-7.77,30.49-17.44,60.33-30.83,88.94-14.43,30.83-32.78,59.07-53.94,85.64-14.9,18.71-31.58,35.75-48.97,52.02-24.84,23.25-51.95,43.67-80.75,61.88-20.17,12.76-41.08,24.11-62.55,34.48-7.1,3.43-14.38,6.49-21.66,9.52-3.93,1.64-7.92,1.3-11.93-.34-23.28-9.53-45.31-21.48-66.8-34.45-21.52-12.99-42.1-27.34-61.63-43.15-10.28-8.32-20.31-16.97-29.94-26.07-6.56-6.2-13.24-12.29-19.45-18.84-27.37-28.83-51.6-60-71.07-94.79-20.24-36.18-34.18-74.76-44.58-114.75-5.89-22.63-10.54-45.5-14.7-68.51-3.34-18.51-5.79-37.14-8.13-55.78-1.55-12.38-2.84-24.83-3.73-37.31-1.22-17.1-2.42-34.2-3.45-51.32-1.48-24.66-1.52-49.31-1.5-73.98,0-5.39,2.51-8.58,7.36-10.04,24.57-7.41,49.38-13.94,74.37-19.75,30.01-6.98,60.21-13.08,90.65-17.96,17.2-2.76,34.43-5.29,51.71-7.33,12.96-1.53,25.98-2.63,39.01-3.69,22.91-1.87,45.83-2.77,68.8-2.4Z"/>
  <path class="cls-10" d="M149.07,287.14c20.76-2.13,41.64-2.52,62.41-4.56,10.52-1.03,21.11-1.26,31.66-2.03,13.49-.99,26.94-2.43,40.44-3.16,7.61-.41,15.16-1.47,22.76-1.8,19.44-.84,38.78-3.03,58.19-4.17,17.04-1,34.01-2.79,51.05-3.68,17.16-.9,34.28-2.63,51.43-3.94,16.03-1.22,32.06-2.35,48.09-3.54,25.32-1.89,50.64-3.81,75.96-5.69,16.6-1.23,33.21-2.39,49.81-3.61,7.03-.51,14.07-1.03,21.1-1.64,3.29-.29,4.55-.16,3.72,4.19-1.32,6.94-1.72,14.08-2.81,21.11-1.83,11.82-3.14,23.72-5.27,35.48-3.36,18.57-7.05,37.09-11.77,55.36-6.74,26.12-14.76,51.84-25.56,76.61-2.67,6.13-5.54,12.17-8.31,18.26-.65,1.44-1.35,2.45-3.3,2.58-19.28,1.31-38.56,2.74-57.83,4.16-25.61,1.89-51.21,3.83-76.81,5.69-17.45,1.27-34.91,2.39-52.36,3.66-25.47,1.85-50.93,3.8-76.39,5.66-17.17,1.25-34.34,2.38-51.51,3.63-25.75,1.87-51.49,3.81-77.24,5.69-16.46,1.2-32.93,2.37-49.39,3.54-16.46,1.17-32.93,2.28-49.39,3.53-3.26,.25-5.02-.59-6.94-3.69-8.57-13.76-16.38-27.93-23.23-42.59-9.31-19.92-16.93-40.49-23.3-61.56-4.78-15.83-9.17-31.73-12.73-47.86-3.23-14.63-6.09-29.34-9.05-44.03-.48-2.39,.09-3.71,3.17-3.92,27.16-1.84,54.32-3.89,81.47-5.9,7.32-.54,14.62-1.19,21.93-1.79Z"/>
  <path class="cls-10" d="M500.07,255.35c5.18-9.92,9-19.75,11.59-29.89,1.47-5.75,2.42-11.89,2.72-17.84,.69-13.92,.94-27.99-2.58-41.58-1.93-7.46-4.83-14.74-7.77-21.96-3.45-8.47-8.74-15.8-13.31-23.56-2.23-3.8-5.44-7.03-8.32-10.43-4.66-5.49-9.18-11.08-14.4-16.11-8.55-8.25-17.35-16.31-27.59-22.18-11.53-6.61-23.88-11.63-37.12-14.35-7.58-1.56-15.1-2.7-22.81-2.4-2.43,.1-3.23-.74-3.11-3.13,.17-3.38,.1-6.78,.04-10.17-.07-4.02-1.72-4.99-5.29-3.42-9.49,4.16-17.82,10.35-26.9,15.23-4.17,2.24-8.28,4.57-12.49,6.74-1.91,.99-3.15,2.12-3.11,4.5,.03,2.27,1.08,3.11,2.99,4.35,3.36,2.18,7.38,3.38,10.24,6.69-4.96,3.21-7.51-2.07-11.11-3.24-2.32-.76-4.25-2.62-6.46-3.81-5.82-3.13-10.98-.02-15.33,2.88-7.89,5.25-15.99,10.38-22.64,17.33-5.46,5.7-11.7,10.86-16.19,17.25-4.44,6.32-8.33,13.18-11.87,20.17-2.8,5.53-4.9,11.33-7.23,17.02-.84,2.05-1.33,2.33-3.06,1.58-6.62-2.86-13.64-4.2-20.67-5.55-2.27-.44-4.49-.44-6.72-.35-2.27,.09-3.12-.77-2.83-2.94,.04-.28,.04-.57,0-.85-.43-2.63,1.42-6.16-1.9-7.65-2.91-1.3-5.26,1.39-7.63,2.69-6.91,3.78-13.64,7.89-20.49,11.78-3.99,2.27-4.5,3.39-2.53,7.95-10.15-6.31-16.16,1.75-22.46,6.35-13.8,10.09-23.87,23.41-29.83,39.58-2.93,7.93-4.78,16.09-5.03,24.61-.36,12.04,.39,23.89,4.61,35.31,2.99,8.1,6.95,15.67,12.18,22.54,.59,.78,1.41,1.42,1.09,2.86-10.99,.85-22.06,1.74-33.13,2.57-22.22,1.67-44.45,3.28-66.67,4.98-5.9,.45-6.14,.57-6.93-5.09-1.84-13.09-3.32-26.23-5.24-39.31-2.21-15.04-3.37-30.19-4.94-45.29-1.02-9.88-1.05-19.86-1.84-29.77-1.04-13.02-1.03-26.09-1.85-39.1-1.04-16.5-.15-32.97-.67-49.44-.07-2.35,.75-3.13,3.18-3.88,24.27-7.56,48.92-13.63,73.62-19.54,19.7-4.72,39.54-8.8,59.47-12.47,14.47-2.66,28.96-5.26,43.51-7.51,11.41-1.76,22.93-2.9,34.38-4.4,14.39-1.88,28.82-3.31,43.31-4.33,9.22-.65,18.45-1.07,27.67-1.69,23.54-1.57,47.09-.86,70.62-.51,14.91,.22,29.86,1.49,44.76,2.95,9.72,.95,19.45,1.93,29.18,2.83,9.14,.84,18.26,2.13,27.35,3.47,10.17,1.5,20.31,3.18,30.43,4.95,14.5,2.52,29.04,4.89,43.45,7.87,18.88,3.9,37.72,8.05,56.45,12.63,15.36,3.75,30.52,8.28,45.77,12.49,4.8,1.33,11.33,1.35,13.69,5.06,2.26,3.56,.71,9.56,.72,14.49,.03,18.43,.23,36.86-.06,55.29-.22,14.45-.84,28.91-1.69,43.34-.84,14.22-2.17,28.42-3.36,42.62-.19,2.21-1.1,4.34-.84,6.63,.2,1.74-.93,2.03-2.38,2.13-15.48,1.1-30.95,2.24-46.43,3.39-25.32,1.89-50.63,3.82-75.96,5.68-13.78,1.02-27.57,1.94-42.24,2.96Z"/>
  <path class="cls-10" d="M117.25,504.43c163.49-11.83,326.36-23.62,489.81-35.45-2.99,6.95-6.8,12.88-10.38,18.93-8.73,14.74-18.53,28.77-29.02,42.28-6.59,8.49-13.67,16.62-20.82,24.67-9.29,10.45-19.28,20.19-29.32,29.85-16.72,16.07-34.8,30.58-53.59,44.2-14.2,10.29-28.86,19.9-43.94,28.83-19.32,11.44-39.5,21.22-59.73,30.97-9.39,4.52-16.49,2.51-24.64-1.25-30.06-13.86-58.51-30.53-85.69-49.33-13.51-9.35-26.53-19.39-39.08-30.06-13.26-11.29-26.38-22.71-38.43-35.27-17.32-18.06-33.65-36.97-47.83-57.65-1.18-1.72-2.6-3.29-3.79-5.01-1.17-1.69-2.19-3.49-3.55-5.69Z"/>
  <path class="cls-10" d="M317.7,268.69c-1.68,.2-3.36,.6-5.04,.57-3.97-.07-6.95-4.4-5.73-8.17,8.95-27.79,3.83-53.34-12.28-77.14-3.56-5.26-7.39-10.38-12.11-14.57-2.93-2.6-2.72-5.19-1.69-8.06,2.03-5.65,3.86-11.45,6.64-16.74,3.53-6.72,7.47-13.25,12.37-19.17,2.86-3.46,5.79-6.82,8.98-9.97,12.83-12.63,28.14-20.99,45.16-26.55,4.06-1.33,8.39-1.32,12.36-3.18,1.46-.68,3.22,1.05,4.65,2.1,2.31,1.7,3.89,1.82,3.84-1.77-.04-2.75,1.64-3.47,4.14-3.57,12.5-.51,24.5,2.11,36.69,4.52,14.04,2.77,24.42,11.29,35.1,19.39,4.91,3.72,7.78,9.75,11.11,15.08,5.24,8.37,9.09,17.31,11.58,26.85,1.74,6.66,2.94,13.37,3.24,20.3,.39,8.85,.29,17.63-1.14,26.39-2.17,13.32-6.83,25.73-13.73,37.25-5.87,9.8-12.81,18.8-21.85,26-1.66,1.32-3.33,1.88-5.38,2.03-33.34,2.45-66.67,4.96-100.01,7.43-5.63,.42-11.26,.73-16.9,1.09,0-.04,0-.07-.01-.11Z"/>
  <path class="cls-10" d="M169.91,279.77c-2.62,.68-4.52-.56-6.41-3.53-7.84-12.32-13.15-25.19-13.57-40.18-.52-18.46,4.71-34.57,16.08-49,9.59-12.17,21.98-19.97,36.65-24.22,3.67-1.06,7.64-3.89,11.65-.34,.62,.55,1.79,.28,1.78-.92-.04-3.24,2.16-2.97,4.35-3.05,11.49-.41,22.69,1.6,32.91,6.53,9.2,4.43,16.68,11.18,22.03,20.48,6.51,11.32,9.73,23.38,9.87,36.09,.14,13.52-3.43,26.37-10.54,38.06-.8,1.32-1.67,2.6-2.41,3.95-3.87,7.01-9.64,9.82-17.77,10.13-17.18,.65-34.32,2.23-51.47,3.47-10.83,.78-21.65,1.64-33.14,2.51Z"/>
  <path class="cls-10" d="M511.89,186.55c1.46,22.72-3.28,44.17-13.14,64.6-1.64,3.4-3.68,5.28-7.75,4.97-4.55-.34-9.1,1.26-13.49,.65,29.62-45.49,31.12-91.92,5.01-139.68,7.94,2.95,23.38,35.8,27.85,58.3,.74,3.69,.25,7.54,1.52,11.15Z"/>
  <path class="cls-10" d="M359.1,84.7c-11.61,2.73-22.38,7.69-32.96,13.09-2.53,1.29-4.8,3.19-6.97,5.07-7.03,6.08-14.29,11.76-20.12,19.31-4.52,5.85-8.67,11.95-12.79,18.03-2.68,3.96-3.86,8.94-5.69,13.47-.78,1.94-.72,4.21-2.15,5.88-.88,1.03,.27,4.19-1.95,3.14-1.8-.86-4.86-2.41-3.92-5.65,3.31-11.43,7.72-22.21,14.63-32.19,5.81-8.4,12.53-15.77,19.92-22.58,6.03-5.56,13.32-9.42,20.55-13.31,7.25-3.89,15.18-5.69,22.81-8.41,1.31-.47,2.03-.31,3.01,.39,1.81,1.29,3.68,2.47,5.63,3.76Z"/>
  <path class="cls-10" d="M289.18,181.74c8.75,10.28,14.38,21.97,17.43,34.85,3.99,16.84,2.1,33.26-4.08,49.31-1.2,3.13-2.81,4.93-6.47,4.59-2.35-.22-4.76,.21-7.32,.36,16.67-29.61,16.37-59.29,.43-89.13Z"/>
  <path class="cls-19" d="M147.25,239.9c-3.13-15.3-1.35-30.03,5.43-43.94,8.31-17.04,21.43-29.01,39.27-35.67,2.23-.83,4.43-1.78,6.71-2.46,1.38-.41,3.18-.34,3.52,1.33,.32,1.52-1.6,1.31-2.49,1.6-12.4,4.09-23.18,10.74-32.04,20.33-12.1,13.12-19.26,28.36-20.28,46.46-.23,4.16,.2,8.27-.13,12.35Z"/>
  <path class="cls-12" d="M477.28,209.46c-2.67,9.1-5.52,18.21-10.51,26.28-3.29,5.32-6.32,10.97-11.08,15.33-1.71,1.57-3.4,3.11-4.36,5.49-1.07,2.63-3.67,3.25-7.05,2.56,15.66-15.57,26.96-33.4,32.3-54.68,1.98,1.43,1.03,3.27,.7,5.03Z"/>
  <path class="cls-20" d="M477.28,209.46c-.31-1.67,.58-3.5-.7-5.03,.82-4,1.65-8,2.47-12,.95-3.66-.32-7.45,.68-11.1,1.9,3.03,.88,6.38,.8,9.53-.15,6.32-1.83,12.46-3.26,18.6Z"/>
  <path class="cls-14" d="M511.89,186.55c-2.74-3.41-1.27-7.4-1.52-11.15,.96,3.65,1.98,7.3,1.52,11.15Z"/>
  <path class="cls-30" d="M479.73,181.33c-.27,3.7,.92,7.49-.69,11.1,.22-3.7-.8-7.48,.69-11.1Z"/>
  <path class="cls-11" d="M388.29,79.23c-2.91,1.16-5.85,.55-8.78,.34,2.91-1.12,5.85-.49,8.78-.34Z"/>
  <path class="cls-17" d="M479.27,171.71v-7.08c.74,2.29,.04,4.75,1.37,7-.46,.03-.91,.05-1.37,.08Z"/>
  <path class="cls-15" d="M268.88,271.29c.88-.81,1.77-1.63,3.08-2.83,0,2.31-1.19,2.92-2.31,3.58-.26-.25-.51-.5-.77-.75Z"/>
  <path class="cls-32" d="M167.9,392.47c-28.62-24.92-20.39-60.01-5.87-77.99,11.62-14.4,37.27-21.14,54.49-14.35,9.66,3.81,14.26,11.59,15.67,21.42,1.08,7.58,.32,15.18-.76,22.74-.21,1.49-.82,2.26-2.38,2.38-7.31,.54-14.61,1.09-21.91,1.72-2.57,.22-2.58-.88-2.28-3.01,.56-4.03,1.45-8.06,1.17-12.18-.47-7.11-4.66-10.75-11.76-10.1-7.47,.69-12.62,4.36-14.97,11.68-3.67,11.43-1.53,21.62,6.16,30.8,4.1,4.89,8.89,9.04,13.47,13.44,3.35,3.22,6.85,6.31,9.6,10.1-.24,2.28-2.15,1.95-3.52,2.04-9.93,.65-19.85,1.55-29.75,2.56-2.54,.26-5.05,.07-7.35-1.24Z"/>
  <path class="cls-32" d="M401.87,372.92c-7.93-7.9-14.7-16.67-16.47-28-3.54-22.7,4.66-54.67,35.94-62.92,8.26-2.18,16.62-2.91,25.14-1.38,11.48,2.06,19.63,10.51,21.31,22.73,1.06,7.74,.35,15.48-.75,23.18-.22,1.51-.88,2.23-2.42,2.34-7.17,.53-14.35,1.07-21.51,1.71-2.51,.22-3.07-.48-2.65-3.07,.66-4.01,1.47-8.06,1.18-12.19-.49-6.96-4.48-10.49-11.43-10.05-7.8,.5-12.89,4.34-15.32,11.82-3.71,11.42-1.47,21.63,6.27,30.8,4.12,4.88,8.93,9.03,13.49,13.44,2.73,2.64,5.69,5.08,7.85,8.27-2.23,1.87-5.05,1.71-7.64,1.93-9.53,.82-19.06,1.73-28.6,2.46-1.61,.12-3.09-.06-4.39-1.06Z"/>
  <path class="cls-32" d="M494.94,363.62c2.85-19.06,3.57-38.49,8.59-57.17,5.85-21.76,23.34-35.14,45.84-35.94,4.07-.15,8.15-.32,12.23,.49,14.66,2.91,22.51,12.01,23.39,26.86,.53,8.96-1.1,17.7-2.01,26.52-.18,1.76-.98,2.69-2.97,2.82-6.89,.44-13.77,.99-20.65,1.65-2.58,.25-3.62-.39-3.13-3.19,.84-4.85,1.46-9.75,2.11-14.63,.36-2.67,.3-5.32-.42-7.97-1.25-4.55-3.97-6.87-8.72-7.21-9.4-.68-15.96,3.84-18.73,12.99-1.85,6.1-2.08,12.49-3,18.75-1.67,11.42-3.04,22.89-4.53,34.34-.83,1.87-2.58,2-4.26,2.24-6.85,.98-13.75,1.43-20.65,1.88-1.55,.1-3.74,.5-3.1-2.43Z"/>
  <path class="cls-32" d="M260.13,383.96c2.43-18.59,4.84-37.18,7.28-55.76,1.27-9.64,2.74-19.26,3.78-28.93,.33-3.04,1.11-4.54,4.38-4.72,7.46-.42,14.91-1.1,22.35-1.76,1.95-.17,2,.7,1.79,2.26-1.42,10.48-2.73,20.96-4.12,31.44-2.47,18.58-4.98,37.16-7.48,55.73-.67,1.76-2.21,2-3.79,2.15-6.31,.58-12.63,1.02-18.94,1.62-1.92,.18-4.33,.72-5.26-2.04Z"/>
  <path class="cls-32" d="M316.96,377.18c2.72-20.68,5.43-41.36,8.17-62.04,.94-7.13,2.09-14.23,2.8-21.38,.28-2.81,1.52-3.54,3.98-3.69,6.9-.45,13.79-.91,20.67-1.61,3.14-.32,2.77,1.51,2.54,3.36-.88,6.85-1.81,13.69-2.72,20.54-2.76,20.82-5.51,41.64-8.29,62.45-.15,1.11-.5,2.19-.75,3.28-.65,.55-1.38,.99-2.22,1.12-6.77,1.07-13.57,1.85-20.43,1.78-2.25-.02-4.81-.28-3.74-3.81Z"/>
  <path class="cls-9" d="M563.72,428.93c-2.69,6.7-7.69,11.42-13.7,14.93-15.21,8.89-31.22,11.92-47.92,4.58-6.14-2.7-10.27-7.76-12.09-14.43,3.64-1.95,7.73-1.56,11.58-1.84,19.09-1.4,38.11-3.66,57.23-4.62,1.75-.09,3.74-.77,4.89,1.38Z"/>
  <path class="cls-9" d="M447.59,438.25c-7.72,13.46-19.74,20.39-34.69,22.86-8.15,1.35-16.26,1.46-24.14-1.43-7.46-2.73-12.6-7.77-14.89-15.51,2.08-1.83,4.76-1.72,7.2-1.89,18.38-1.3,36.69-3.34,55.08-4.5,3.8-.24,7.75-2.22,11.45,.46Z"/>
  <path class="cls-9" d="M328.15,449.29c-3.02,6.37-8.19,10.71-14.09,14.1-12.72,7.31-26.45,9.3-40.68,6.03-7.73-1.77-13.88-6.16-16.59-14.18,1-2.21,3.17-2.2,5.05-2.45,7.68-1.01,15.42-1.52,23.13-2.14,12.49-1,24.96-2.23,37.47-3.04,2.13-.14,4.27-.47,5.72,1.67Z"/>
  <path class="cls-13" d="M328.15,449.29c-4.73-1.51-9.46,.02-14.15,.2-9.23,.37-18.46,1.25-27.63,2.38-9.85,1.22-19.89,.74-29.58,3.38-3.27-5.25-3.46-11.09-3.25-17.01,2.02-1.76,4.54-1.04,6.84-1.43,4.99-.86,10.06-.67,15.06-1.43,2.06-.31,4.23-.37,6,1.17,1.06,4.13,2.83,7.86,7.57,8.4,6.13,.7,12.09,.16,16.51-5.04,.71-.84,1.41-1.7,2.11-2.54,3.41-2.27,7.4-1.05,11.08-1.77,3.84-.74,7.83-.5,11.73-1.06,1.54-.22,3.1-.01,4.34,1.16-1.62,4.82-3.09,9.72-6.64,13.59Z"/>
  <path class="cls-9" d="M210.3,458.6c-5.42,8.48-12.98,14.27-22.44,17.56-10.95,3.8-22.11,5.11-33.43,1.81-7.12-2.08-12.28-6.59-15.3-13.45,1.36-1.76,3.36-1.92,5.33-2.08,19.81-1.61,39.61-3.22,59.4-5.01,2.2-.2,4.54-.59,6.44,1.17Z"/>
  <path class="cls-13" d="M563.72,428.93c-2.6-1.24-5.25-.07-7.8,.11-12.11,.82-24.18,2.37-36.29,3.02-9.88,.53-19.68,2.28-29.61,1.96-1.28-3.27-1.91-6.66-1.74-10.18,1.14-1.44,2.7-1.95,4.46-2.02,7.88-.31,15.69-1.3,23.51-2.26,1.84,4.14,4.24,7.84,9.41,7.56,6.43-.35,12.66-1.52,16.18-7.93,1.14-2.08,2.09-4.26,3.12-6.39,2-1.63,4.52-1.52,6.79-1.6,6.49-.24,12.91-2.2,19.47-.89-1.61,6.57-3.03,13.22-7.51,18.64Z"/>
  <path class="cls-13" d="M210.3,458.6c-10.09,.28-20.11,1.53-30.15,2.37-7.4,.62-14.81,1.06-22.2,1.84-6.26,.66-12.54,1.15-18.82,1.71-2.84-7.13-4.52-14.39-2.62-22.08,1.21,1.05,1.27,2.52,1.2,3.9-.2,3.6,1.52,4.07,4.72,3.76,4.89-.47,9.79-1.12,14.72-1.19,2.05-.03,3.83-.79,5.69-1.4,4.2,7.85,14.9,9.33,22.05,2.98,1.55-1.37,2.81-3.06,4.21-4.6,8.01-.87,16.06-1.27,24.08-2.05,1.37-.13,2.81,.01,3.85,1.19-1.24,5.02-3.47,9.55-6.72,13.57Z"/>
  <path class="cls-13" d="M447.59,438.25c-12.87,.75-25.7,1.83-38.51,3.25-7.66,.85-15.37,1.25-23.05,1.83-4.05,.31-8.11,.57-12.16,.85-.96-2.16-1.88-4.33-1.67-6.78,3.42-2.21,7.41-1.47,11.1-1.83,5.88-.58,11.77-1.28,17.68-1.56,9.4,6.23,21.83,1.11,25.34-10.47,.24-.79,.14-1.7,.92-2.27,7.62,.34,15.14-1.1,22.72-1.39,1.51-.06,3.09-.67,4.43,.57-.85,6.47-3.14,12.4-6.8,17.79Z"/>
  <path class="cls-3" d="M167.9,392.47c10.16,.21,20.19-1.36,30.26-2.35,3.45-.34,7.05,.72,10.36-1,5.23,5.96,9.44,12.47,10.94,20.42-1,1.07-2.27,1.7-3.7,1.76-8.23,.35-16.38,1.69-24.61,1.96-1.27,.04-2.5-.21-3.73-.46-5.53-7.72-12.74-13.81-19.52-20.33Z"/>
  <path class="cls-1" d="M578.79,355.96c-1.11,7.97-2.22,15.93-3.34,23.9-2.17,1.8-4.84,.92-7.26,1.38-4.69,.89-9.48,.59-14.19,1.35-1.63,.26-3.38,.27-4.71-1.11-.57-2.44,1.69-5.64-.15-7.07-1.39-1.08-4.54,.2-6.91,.26-6.47,.16-6.76,.06-5.43-6.25,.64-3.03-.15-6.22,1.31-9.08,5.66,1.24,11.25-.28,16.85-.55,6.04-.3,12.05-1.34,18.12-1.43,2.05-.03,3.72-1.29,5.71-1.38Z"/>
  <path class="cls-31" d="M281.45,436.55c-9.35-.16-18.56,1.97-27.91,1.69-.06-7.74,1.27-15.33,2.55-22.93,1.46-1.32,3.35-1.34,5.12-1.53,6.78-.72,13.57-1.35,20.39-1.6,.85-.03,1.67,.06,2.38,.6-.35,7.98-2.8,15.73-2.52,23.77Z"/>
  <path class="cls-31" d="M454.39,420.46c-7.98,.84-15.96,1.7-23.95,2.49-1.33,.13-2.93,.4-3.21-1.67,1.43-6.82,.88-13.55-.89-20.23,2.47-2.06,5.53-1.88,8.43-2.12,7.16-.6,14.35-.78,21.41-2.27,1.93,6.12-.09,12.17-.53,18.22-.13,1.78,.22,3.99-1.27,5.59Z"/>
  <path class="cls-27" d="M260.13,383.96c1.07,1.33,2.58,.95,3.92,.86,7.39-.54,14.77-1.14,22.15-1.78,.66-.06,1.28-.53,1.92-.8-1.04,7.68-2.09,15.36-3.13,23.04-9.33,.56-18.57,2.62-27.99,1.69,1.04-7.67,2.09-15.34,3.13-23Z"/>
  <path class="cls-31" d="M571.23,410.3c-3.39,1.76-7.17,.75-10.76,1.45-5.04,.99-10.32,.76-15.5,1.04,.93-7.39,1.87-14.78,2.8-22.17,1.17-1.16,2.68-1.59,4.22-1.69,6.72-.42,13.41-1.13,20.13-1.57,.85-.05,1.68,.1,2.37,.67-1.08,7.42-2.17,14.83-3.25,22.25Z"/>
  <path class="cls-27" d="M316.96,377.18c-.1,2.72,1.67,2.8,3.66,2.64,7.57-.59,15.14-1.16,22.72-1.73-.39,7.17-1.66,14.22-2.71,21.3-5.63,3.11-11.95,1.96-17.94,2.7-2.87,.35-6.03,1.62-8.94-.22,1.07-8.23,2.14-16.46,3.22-24.7Z"/>
  <path class="cls-16" d="M372.13,425.48c-.49-4.25,.92-8.36,.94-12.58,0-1.43,.67-2.45,2.23-2.57,7.4-.59,14.81-1.17,22.22-1.74,2.49-.19,2.68,1.12,2.3,3.2-.63,3.44-.99,6.93-1.46,10.39-.6,1.05-.37,2.21-.35,3.32,.03,2.27-1.2,3.37-3.27,3.69-6.14,.95-12.32,1.51-18.51,1.78-4.24,.19-4.77-.78-4.09-5.48Z"/>
  <path class="cls-32" d="M578.79,355.96c-.89,1.24-1.56,2.57-3.5,2.6-11.09,.15-22.07,1.88-33.12,2.54-1.55,.09-3.55,.73-4.06-1.77,1.37-11.56,.01-9.35,10.32-10.13,8.84-.67,17.68-1.43,26.5-2.25,5.05-.47,5.14-.44,4.36,4.4-.25,1.53-.34,3.08-.5,4.62Z"/>
  <path class="cls-24" d="M489.07,410.24c-.08-4.93,.66-9.76,1.87-14.54,.8-1.37,2.13-1.74,3.58-1.87,6.45-.58,12.91-.98,19.35-1.68,1.67-.18,3.4-.17,4.8,1.08-.56,4.28-1.11,8.56-1.67,12.83-.37,3.27-2.45,4.45-5.48,4.59-6.05,.27-12.06,.96-18.09,1.42-1.65,.13-3.8,.87-4.37-1.83Z"/>
  <path class="cls-7" d="M448.4,377.31c3.56,3.86,5.22,8.66,6.72,13.54-11.06,.99-22.11,2.2-33.21,2.59-3.31-3.71-6.62-7.42-9.93-11.12,1.38-1.74,3.38-1.85,5.35-2.04,10.36-.96,20.76-1.58,31.08-2.97Z"/>
  <path class="cls-23" d="M448.4,377.31c-1.9,2.88-5.19,1.92-7.7,2.26-7.73,1.06-15.57,1.3-23.36,1.92-1.8,.14-3.58,.54-5.37,.83-3.39-3.11-7.2-5.76-10.11-9.39,11.72-1.01,23.44-2.03,35.16-3.02,1.82-.15,3.65-.2,5.47-.3,2.96,1.81,3.86,5.2,5.9,7.71Z"/>
  <path class="cls-24" d="M311.09,423.8c.03-4.87,.71-9.66,1.58-14.44,9.06-.35,18.02-2.24,27.14-1.72-.8,5.12-1.61,10.24-2.41,15.35-1.62,1.46-3.67,1.1-5.6,1.37-5.01,.7-10.08,.77-15.1,1.35-2.02,.23-4.56,1.1-5.6-1.91Z"/>
  <path class="cls-2" d="M217.02,445.03c-7.86,.57-15.73,1.17-23.6,1.66-1.45,.09-3.1,.56-4.33-.8,1.79-4.06,2.24-8.49,3.38-12.73,2.85-2.15,6.3-1.42,9.42-1.63,6.14-.41,12.24-2.14,18.46-.9-.68,4.89-1.23,9.82-3.33,14.39Z"/>
  <path class="cls-22" d="M220.35,430.64c-3.25,1.62-6.93,1.22-10.29,1.43-5.85,.37-11.68,1.65-17.59,1.09,.21-3.96-.23-7.88-.89-11.77,.86-2.15,2.82-2.04,4.61-2.15,6.01-.37,11.99-1.09,17.99-1.56,2.72-.21,4.82-1.04,6.39-3.24,1.95,5.43-.14,10.8-.21,16.2Z"/>
  <path class="cls-25" d="M489.07,410.24c4.81,1.79,9.58-.36,14.39-.29,2.41,.04,5-.59,7.51-.47,2.83,.13,4.95-.64,6.04-3.41-.75,4.47-.94,8.98-.76,13.5-3,2.97-6.99,1.97-10.54,2.51-5.77,.86-11.68,.56-17.43,1.77,.25-4.53-.86-9.15,.79-13.6Z"/>
  <path class="cls-2" d="M311.09,423.8c1.67,1.6,3.74,.99,5.57,.75,6.89-.9,13.78-1.6,20.73-1.56,.03,4.42-1.33,8.56-2.6,12.71-9.08,.11-18.04,2.07-27.15,1.66,1.81-4.35,2.2-9.07,3.45-13.56Z"/>
  <path class="cls-26" d="M136.58,439.94c.3-3.2,.58-6.41,.91-9.61,.13-1.27,.81-2.09,2.14-2.2,7.41-.59,14.82-1.17,22.22-1.76,2.04-.16,2.84,.7,2.45,2.76-.57,3.03-1.03,6.07-1.54,9.11-1.34,1.26-3.08,1.12-4.73,1.4-5.12,.88-10.33,.7-15.46,1.46-2.05,.31-4.23,.39-5.99-1.17Z"/>
  <path class="cls-2" d="M136.58,439.94c8.73-.56,17.46-1.13,26.18-1.69,.02,3.09,.04,6.18,.06,9.27-.14,1.66-1.03,2.56-2.71,2.58-6.97,.08-13.9,.77-20.8,1.69-1.91,.25-2.87-.58-2.8-2.62,.08-2.24,0-4.48-.01-6.73,.02-.83,.05-1.67,.07-2.5Z"/>
  <path class="cls-7" d="M491.86,386.7c.93-4.86,.64-9.92,2.29-14.66,2.08,2.07,4.53,2.34,7.33,1.88,4.55-.74,9.18-.67,13.76-1.24,2.03-.26,4.22-.41,5.99,1.16-.5,3.98-1,7.96-1.5,11.94-7.59-.05-15.1,.94-22.64,1.57-1.8,.15-3.63,.71-5.23-.65Z"/>
  <path class="cls-29" d="M521.23,373.83c-7-.02-13.94,.81-20.89,1.54-2.36,.25-6.47,2.04-6.19-3.33,.3-2.81-.55-5.72,.79-8.42,.23,.65,.4,1.61,1.2,1.49,8.78-1.31,17.75-.87,26.44-2.97,.13-.03,.24-.14,.36-.21-.57,3.97-1.14,7.94-1.71,11.9Z"/>
  <path class="cls-32" d="M421.91,393.44c1.66-1.63,3.95-1.37,5.91-1.59,7.33-.83,14.71-1.31,22.07-1.85,1.78-.13,3.66-.46,5.24,.85,.35,1.94,.7,3.87,1.06,5.81-1.06,3.11-4.07,2.15-6.05,2.4-7.89,.97-15.85,1.38-23.79,2-1.48-2.54-2.95-5.07-4.43-7.61Z"/>
  <path class="cls-8" d="M220.56,414.44c.4,3.42-1.09,4.17-4.5,4.48-8.16,.74-16.43,.69-24.49,2.47-1.38-2.86-2.77-5.73-4.15-8.6,4.27-1.61,8.82-.84,13.22-1.52,6.21-.97,12.54-1.19,18.81-1.73,.37,1.63,.73,3.27,1.1,4.9Z"/>
  <path class="cls-8" d="M257,406.96c3.51-1.91,7.51-1.22,11.12-1.35,5.59-.21,11.23-2.71,16.86-.34-.34,2.5-.68,5.01-1.02,7.51-4.27,1.71-8.86,.66-13.29,1.51-4.75,.92-9.72,.73-14.6,1.02,.31-2.78,.61-5.57,.92-8.35Z"/>
  <path class="cls-6" d="M491.86,386.7c8.34-.82,16.68-1.62,25.02-2.49,1.42-.15,2.53-.12,2.86,1.56-.35,2.49-.7,4.97-1.05,7.46-9.25,.82-18.49,1.65-27.74,2.47-.46-3.08,.74-5.99,.92-9Z"/>
  <path class="cls-6" d="M339.81,407.64c-2.32,1.89-5.18,.9-7.75,1.28-5.53,.83-11.16,.97-16.75,1.36-.98,.07-1.99,.07-2.64-.92,.36-2.5,.72-5,1.08-7.49,8.96-.83,17.92-1.66,26.89-2.49-.88,2.69-.56,5.5-.83,8.25Z"/>
  <path class="cls-6" d="M574.48,388.05c-8.83,1.62-17.82,1.57-26.71,2.58,.62-3.03,.34-6.21,1.53-9.15,8.76,.1,17.37-2.22,26.16-1.62-.33,2.73-.65,5.46-.98,8.2Z"/>
  <path class="cls-13" d="M372.13,425.48c-.56,3.63,1.16,4.69,4.55,4.32,6.1-.67,12.22-1.19,18.34-1.75,1.7-.16,2.48-1.08,2.55-2.74,.05-1.09-.26-2.29,.79-3.14,.03,4.13-.31,8.34,2.62,11.83-.53,1.11-1.41,1.67-2.65,1.69-8.74,.12-17.36,1.95-26.13,1.71-.58-3.97-1.84-7.94-.07-11.92Z"/>
  <path class="cls-32" d="M347.64,574.46c-.94,6.22-1.82,12.46-2.86,18.66-.35,2.06-.11,4.68-3.68,4.44-3.26-.22-2.35-2.78-2.64-4.39-1.1-5.91-1.91-11.88-3.6-17.77,0,6.37,0,12.75,0,19.12,0,1.82,.4,3.67-2.52,3.78-3.21,.12-2.44-2.05-2.44-3.71-.05-9.6,.26-19.21-.14-28.8-.2-4.7,2.9-3.75,5.38-4.37,3.39-.84,3.27,1.76,3.58,3.72,.77,4.87,1.39,9.77,2.06,14.65,.21,1.5,.17,3.08,1.44,4.58,.99-7.03,2.15-13.8,2.83-20.61,.47-4.72,3.89-3.1,6.33-3.39,3.16-.38,2.24,2.22,2.25,3.81,.07,9.6,0,19.2,.06,28.8,.01,2.19-.06,3.83-3.01,3.79-3.28-.04-2.19-2.35-2.21-3.89-.1-6.12-.04-12.24-.04-18.36-.26-.02-.52-.04-.78-.06Z"/>
  <path class="cls-32" d="M304.13,586.64c.95-6.83,2.07-13.65,2.79-20.51,.47-4.43,3.73-2.86,6.06-3.24,3.05-.49,2.52,1.82,2.53,3.57,.02,9.74-.01,19.49,.03,29.23,0,1.98,0,3.52-2.75,3.62-3.15,.11-2.48-1.94-2.49-3.64-.03-6.2-.01-12.41-.72-18.7-.89,5.59-1.79,11.18-2.68,16.77-.13,.84-.17,1.69-.35,2.51-.4,1.87-.32,3.9-3.33,3.86-3.28-.04-2.58-2.53-2.88-4.15-1.1-6.04-1.94-12.13-3.62-18.12,0,6.46-.04,12.93,.02,19.39,.02,1.99,.04,3.58-2.72,3.62-2.9,.04-2.27-1.91-2.27-3.47-.04-9.88,.18-19.77-.11-29.65-.13-4.4,3.05-3.07,5.11-3.7,2.58-.79,3.42,.61,3.73,2.99,.85,6.53,1.88,13.04,2.84,19.56,.27,.02,.54,.04,.81,.06Z"/>
  <path class="cls-32" d="M319.6,525.68c0,6.92-.06,13.83,.03,20.75,.03,2.18-.4,3.43-2.94,3.51-3.05,.1-2.13-2.05-2.14-3.49-.07-9.89,.08-19.78-.11-29.66-.05-2.76,1.13-3.22,3.4-3.52,2.39-.32,3.98-.32,4.62,2.62,1.19,5.47,2.76,10.85,4.77,16.22,0-5.4,.13-10.81-.06-16.2-.09-2.56,.81-3.64,3.28-3.65,2.7,0,1.82,2.05,1.83,3.37,.07,9.89-.08,19.78,.11,29.66,.05,2.66-.99,3.34-3.28,3.69-2.61,.39-3.04-1.16-3.53-3.08-1.72-6.79-3.53-13.57-5.3-20.35l-.68,.11Z"/>
  <path class="cls-32" d="M384.02,520.62c0,6.92-.06,13.83,.04,20.75,.03,2.21-.46,3.41-2.98,3.48-3.05,.08-2.1-2.09-2.11-3.52-.07-9.75,.12-19.5-.13-29.24-.08-3.14,1.39-3.6,3.85-4.02,2.75-.46,3.74,.64,4.31,3.16,1.2,5.32,2.67,10.57,4.64,15.79,0-5.41,.08-10.83-.04-16.24-.05-2.17,.42-3.46,2.86-3.63,2.96-.2,2.23,1.89,2.24,3.41,.04,9.75-.02,19.49,.05,29.24,.02,2.15-.09,3.66-2.85,4.04-2.72,.38-3.39-.84-3.94-3.06-1.67-6.8-3.51-13.56-5.28-20.34-.22,.05-.45,.1-.67,.16Z"/>
  <path class="cls-6" d="M260.29,584.98c0-3.39-.13-6.78,.03-10.16,.26-5.6,4.07-9.13,9.64-9.14,5.07-.01,7.94,3.28,8,9.35,.06,6.07,.11,12.14-.02,18.21-.12,5.87-2.58,8.82-7.88,9.91-5.49,1.13-9.42-1.92-9.77-7.58-.02-.28-.02-.56-.02-.85,0-3.25,0-6.49,0-9.74h.01Z"/>
  <path class="cls-6" d="M365.1,544.22c.37,2.39-1.67,1.77-2.8,2.1-1.49,.43-2.63,.2-2.96-1.84-.34-2.08,.32-5.08-3.68-4.75-2.5,.21-3.98,.64-3.95,3.53,.02,1.74,.12,3.83-2.53,4.14-2.15,.26-3.5,.16-2.99-2.77,1.78-10.26,3.46-20.55,4.93-30.86,.53-3.75,3.06-3.17,5.53-3.48,2.89-.36,3.19,1.43,3.52,3.5,1.62,10.15,3.28,20.29,4.93,30.43Z"/>
  <path class="cls-6" d="M229.77,587.7c0-3.52-.13-7.05,.03-10.56,.27-5.64,4.08-8.95,9.78-8.74,4.89,.18,7.34,3.52,7.17,9.45-.05,1.85-.39,2.84-2.51,2.92-1.98,.07-2.83-.48-2.8-2.56,.03-2.12,.09-4.59-3.1-4.36-3.06,.23-2.73,2.68-2.74,4.78-.02,5.92,0,11.83,0,17.75,0,1.89-.06,3.89,2.61,3.92,2.65,.04,3.21-1.81,3.26-3.98,.03-1.13-.02-2.26,.08-3.38,.16-1.79,1.71-1.61,2.88-1.81,.94-.16,1.83-.2,2.27,1.17,1.86,5.78-1.74,12.34-7.52,13.46-5.08,.98-8.93-1.92-9.38-7.09-.02-.28-.03-.56-.03-.84,0-3.38,0-6.76,0-10.14Z"/>
  <path class="cls-6" d="M410.3,523.88c0-3.38-.12-6.77,.03-10.14,.25-5.86,4.18-9.25,10.04-8.86,4.88,.32,7.18,3.73,6.94,9.67-.09,2.12-.95,2.58-2.78,2.66-1.81,.08-2.53-.57-2.54-2.4,0-2.07,.24-4.65-2.94-4.52-3.36,.13-2.89,2.84-2.9,5.05-.03,5.77,0,11.55-.01,17.32,0,2.05-.07,4.22,2.87,4.09,2.65-.12,2.98-2.13,3.01-4.24,.02-.99,0-1.97,.04-2.96,.07-1.81,1.56-1.77,2.74-1.95,.9-.14,1.86-.34,2.4,1,2.2,5.52-1.79,12.67-7.73,13.67-4.9,.83-8.76-2.01-9.07-6.98-.24-3.79-.05-7.6-.05-11.4h-.03Z"/>
  <path class="cls-8" d="M446.83,570.76c0-4.94,.07-9.88-.03-14.82-.05-2.15,.31-3.45,2.89-3.5,3.37-.06,6.74-.46,10.11-.74,1.59-.13,2.8,.08,2.8,2.12,0,1.76-.31,3.11-2.49,3.05-.7-.02-1.41,.11-2.11,.08-3.9-.18-5.74,1-5.51,5.54,.19,3.82,.98,5.13,4.78,4.05,1.46-.41,3.18-.59,3.19,1.94,0,1.89-.19,3.25-2.57,3.49-1.71,.17-4.47-.83-4.92,1.12-.69,2.94-.89,6.4,.05,9.18,.72,2.12,3.75,.51,5.75,.48,1.59-.03,3.53-1,3.8,1.8,.2,2.15-.31,3.59-2.86,3.58-1.97,0-3.95,.1-5.92,.26q-6.97,.56-6.97-6.64c0-3.67,0-7.34,0-11.01Z"/>
  <path class="cls-8" d="M440.9,521.56c0-4.94,.08-9.88-.04-14.82-.05-2.2,.41-3.41,2.94-3.45,3.38-.06,6.75-.45,10.11-.74,1.63-.14,2.76,.17,2.76,2.18,0,1.79-.4,3.09-2.54,3-.42-.02-.85,0-1.27,.04-5.99,.42-7.64,2.82-6.12,8.59,.52,1.98,1.83,1.16,2.97,1.28,1.73,.19,4.36-2.14,4.82,1.75,.42,3.54-2.01,3.58-4.29,3.46-2.74-.14-3.92,.85-3.51,3.63,.1,.69,.02,1.41,.02,2.11,0,5.82,0,5.8,5.74,5.13,1.66-.19,3.77-1.37,4.18,1.72,.39,3-1.26,3.63-3.76,3.58-1.55-.03-3.1,.08-4.65,.19q-7.35,.54-7.35-7.08c0-3.53,0-7.06,0-10.59Z"/>
  <path class="cls-8" d="M476.5,568.28c0-5.08,.08-10.16-.04-15.24-.05-2.14,.63-3.04,2.83-3.12,3.52-.12,7.03-.49,10.54-.77,1.52-.12,2.47,.37,2.42,2.08-.04,1.44,.07,2.95-1.99,3.06-.99,.05-1.98,.2-2.96,.15-3.91-.21-5.21,1.41-5.11,5.45,.09,3.71,.76,5.26,4.7,4.12,1.4-.41,3.17-.7,3.26,1.87,.08,2.19-.44,3.43-2.93,3.58-1.57,.1-4.18-.79-4.56,1.01-.63,2.97-.81,6.35,.02,9.2,.62,2.15,3.47,.56,5.31,.62,1.43,.05,3.36-1.22,4.03,.84,.67,2.05,.78,4.31-2.55,4.45-3.38,.14-6.76,.37-10.11,.78-2.39,.29-2.91-.75-2.87-2.86,.09-5.08,.03-10.16,.03-15.24Z"/>
  <path class="cls-21" d="M265.45,535.3c0-5.08,.07-10.15-.03-15.23-.04-2.05,.45-3.13,2.74-3.2,3.23-.09,6.47-.38,9.68-.72,1.97-.21,2.81,.36,2.82,2.48,0,2.04-.78,2.84-2.74,2.7-.42-.03-.85,.08-1.27,.05-4.39-.38-5.68,1.58-5.51,5.92,.13,3.47,.88,4.9,4.47,4.28,1.45-.25,3.11-.53,3.26,1.99,.14,2.48-.89,3.3-3.17,3.17-3.64-.2-4.9,1.51-4.47,5.11,.32,2.64-.09,5.36,.11,8.03,.2,2.65-.99,3.38-3.42,3.52-2.78,.16-2.46-1.58-2.47-3.28,0-4.94,0-9.87,0-14.81Z"/>
  <path class="cls-21" d="M423,575.65c0-4.09-.1-8.19,.04-12.27,.07-2.28-.46-3.5-3.03-3.11-1.64,.26-2.96,.15-3.01-2.24-.05-2.31,.9-2.86,2.94-2.96,4.08-.19,8.16-.49,12.22-.92,1.78-.19,2.7,.12,2.63,2.1-.06,1.59,.15,3.37-2.24,3.1-3.45-.4-3.82,1.44-3.76,4.29,.16,7.9-.02,15.8,.1,23.7,.04,2.4-.46,3.52-3.18,3.64-3,.13-2.71-1.6-2.71-3.47,.02-3.95,0-7.9,0-11.85Z"/>
  <path class="cls-8" d="M393.34,577.28c0-4.09-.11-8.19,.04-12.27,.09-2.37-.62-3.43-3.1-3.03-1.72,.28-2.97,.01-2.93-2.32,.04-1.92,.51-2.77,2.57-2.86,4.22-.18,8.44-.56,12.64-.95,1.44-.13,2.63-.16,2.52,1.73-.08,1.41,.66,3.64-1.84,3.39-4.45-.43-4.12,2.34-4.09,5.27,.07,7.62-.07,15.24,.07,22.86,.05,2.5-.62,3.45-3.26,3.57-3.07,.14-2.63-1.73-2.63-3.54,0-3.95,0-7.9,0-11.85Z"/>
  <path class="cls-4" d="M300.11,533.31c0,5.07-.11,10.15,.05,15.21,.08,2.57-1.23,2.96-3.34,3.15-2.7,.25-2.56-1.4-2.56-3.18,.01-10,.16-20.01-.08-30-.08-3.31,1.76-3.19,3.91-3.42,3.32-.35,1.9,2.19,1.95,3.44,.17,4.92,.07,9.86,.07,14.79Z"/>
  <path class="cls-4" d="M373.85,576.78c0,4.79-.17,9.59,.06,14.37,.14,2.84-.96,3.7-3.61,3.77-2.88,.07-2.28-1.88-2.28-3.45-.03-9.86,.12-19.72-.1-29.58-.07-3.05,1.38-3.33,3.73-3.61,3.27-.39,2.11,1.95,2.14,3.29,.12,5.07,.05,10.14,.05,15.21Z"/>
  <path class="cls-32" d="M332.33,220.6c0-9.6-.08-19.21,.05-28.81,.04-2.65-.6-4.05-3.49-3.58-.27,.05-.56,0-.85,0-9.91-.05-9.81-.05-9.36-9.98,.11-2.35,1-2.85,3.05-2.76,2.54,.12,5.08-.02,7.62,.04,1.72,.04,2.93-.08,2.98-2.39,.05-2.43-1.08-2.9-3.08-2.71-.56,.05-1.13,0-1.69,0-9-.02-8.89-.02-8.88-9.19,0-2.73,.72-3.58,3.53-3.6,10.09-.04,10.09-.15,10.03-10.48-.03-6.21,.02-12.43-.11-18.64-.05-2.3,.6-3.3,3.08-3.23,19.32,.53,38.69-1.67,57.97,.32,19.53,2.01,35.08,10.34,42.35,29.95,.61,1.65,1.37,2.26,3.01,2.17,1.41-.08,2.82-.01,4.24-.01,9.81,0,10.4,.76,9.07,10.68-.24,1.75-.99,2.06-2.45,2.04-2.96-.04-5.93,.07-8.89-.03-1.95-.07-2.33,.9-2.35,2.59-.02,1.74,.48,2.61,2.38,2.54,2.68-.1,5.38,.16,8.04-.07,2.72-.23,3.26,.89,3.29,3.39,.1,9.37,.17,9.71-9.11,9.23-5.1-.26-7.43,1.38-9.67,6.03-7.53,15.62-21.37,22.53-37.7,25.45-8.97,1.61-18.02,.97-27.04,.99-3.23,0-4.07,.97-3.99,4.1,.22,8.47,.02,16.94,.16,25.41,.04,2.52-.62,3.46-3.3,3.42-8.47-.15-16.95-.16-25.41,.05-3,.07-3.47-1.15-3.44-3.72,.11-9.74,.04-19.49,.04-29.23-.03,0-.06,0-.09,0Z"/>
  <path class="cls-32" d="M210.31,191.63c5.25,.33,11.88-.59,18.49,.7,10.07,1.97,17.95,6.74,21.73,16.69,.95,2.51,2.62,2.06,4.36,2.07,2.01,0,4.12-.34,3.72,2.88-.27,2.2,.9,5.16-3.26,4.69-1.1-.12-2.9-.5-2.71,1.56,.15,1.64,1.75,1.24,2.72,1.12,3.72-.47,3.08,2.04,3.27,4.28,.22,2.63-.73,3.74-3.32,3.27-3.35-.62-4.82,1.02-6.34,3.92-5.24,10.04-14.6,13.59-25.16,14.66-4.06,.41-8.19,.29-12.28,.21-2.17-.04-3.03,.66-2.96,2.9,.14,4.52-.03,9.04,.11,13.56,.07,2.21-.7,2.98-2.92,2.91-4.23-.13-8.48-.18-12.71,.04-2.75,.14-3.28-1.02-3.26-3.45,.07-10.17-.13-20.34,.03-30.5,.05-3.21-.66-4.79-4.16-4.26-2.65,.4-4.34,.07-4.37-3.59-.03-3.82,1.67-4.18,4.57-3.91,.84,.08,1.69,.01,2.53-.07,.81-.08,1.26-.57,1.17-1.43-.07-.61-.38-1.08-1.03-1.14-.98-.08-1.98-.22-2.95-.1-2.88,.34-4.27-.3-4.27-3.77,0-3.43,1.29-4.22,4.21-3.76,3.31,.53,4.51-.74,4.25-4.15-.3-3.93,.07-7.91-.16-11.85-.17-2.9,.99-3.61,3.67-3.52,5.22,.16,10.45,.05,17.04,.05Z"/>
  <path class="cls-18" d="M272.13,584.44c0,3.23,.04,6.46-.02,9.69-.04,2.02-.79,3.61-3.15,3.65-2.58,.04-2.85-1.73-2.85-3.72,.01-6.32,0-12.64,0-18.96,0-2.24,.68-3.94,3.32-3.84,2.58,.09,2.69,2,2.7,3.91,.02,3.09,0,6.18,0,9.27Z"/>
  <path class="cls-28" d="M355.85,520.13c.61,3.98,1.17,7.97,1.86,11.93,.45,2.57-1.12,2.76-2.97,2.79-2.64,.04-1.52-1.72-1.38-2.93,.45-3.97,.65-7.99,2.49-11.79Z"/>
  <path class="cls-10" d="M385.63,170.42c5.79,0,11.58,.03,17.36-.02,1.88-.02,3.28,.06,3.18,2.62-.08,2.16-1.08,2.51-2.91,2.51-12-.05-24-.04-36,0-1.74,0-2.92-.16-2.98-2.42-.06-2.47,1.18-2.72,3.14-2.7,6.07,.07,12.14,.03,18.21,.02Z"/>
  <path class="cls-18" d="M397.63,157.7c-10.36,0-20.73,0-31.09,0-1.25,0-2.25-.22-2.22-1.81,.03-1.15-.06-2.5,1.55-2.43,9.51,.36,19.16-1.57,28.48,1.73,1.18,.42,2.27,1.09,3.4,1.64-.04,.29-.08,.58-.13,.87Z"/>
  <path class="cls-18" d="M398.13,188.22c-4.2,3.05-7.85,4.04-11.59,4.19-6.45,.27-12.92,.14-19.38,.2-1.51,.01-2.75-.08-2.8-2.14-.05-2.03,1.04-2.26,2.65-2.26,9.96,.03,19.93,.01,31.13,.01Z"/>
  <path class="cls-10" d="M220.66,221.38c-3.37,0-6.74,.01-10.11,0-.83,0-1.75-.02-1.87-1.17-.15-1.42,.84-1.57,1.89-1.57,6.88,0,13.76-.01,20.64,0,.83,0,1.77,.01,1.88,1.16,.14,1.4-.85,1.57-1.9,1.58-3.51,.01-7.02,0-10.53,0Z"/>
  <path class="cls-18" d="M228.08,211.1c-5.61,0-11.22,.02-16.83-.02-1,0-2.51,.47-2.58-1.26-.07-1.71,1.41-1.52,2.45-1.45,5.72,.38,11.71-1.28,16.96,2.73Z"/>
  <path class="cls-5" d="M227.14,228.89c-5.51,3.58-11.6,2.25-17.48,2.41-.82,.02-1.15-.73-.94-1.52,.31-1.12,1.31-.88,2.08-.88,5.45-.03,10.89-.02,16.34-.02Z"/>
</svg>